<svg width="60" height="60" viewBox="0 0 60 60" fill="none" xmlns="http://www.w3.org/2000/svg">
<circle opacity="0.1" cx="30" cy="30" r="30" fill="#0099FF"/>
<circle opacity="0.15" cx="30" cy="30" r="23" fill="#0099FF"/>
<path fill-rule="evenodd" clip-rule="evenodd" d="M16 23C16 21.8954 16.8954 21 18 21H42C43.1046 21 44 21.8954 44 23V37C44 38.1046 43.1046 39 42 39H18C16.8954 39 16 38.1046 16 37V23ZM39.7988 23H20.2014L29.4309 29.3897C29.7734 29.6267 30.2269 29.6267 30.5693 29.3897L39.7988 23ZM18 23.9085V37H42V23.9086L35.486 28.4183L39.1009 32.5894C39.4626 33.0067 39.4175 33.6383 39.0001 34C38.5828 34.3617 37.9512 34.3166 37.5895 33.8992L33.8319 29.5635L31.7077 31.034C30.8088 31.6564 29.6548 31.7342 28.6921 31.2674C28.5545 31.2007 28.4209 31.1229 28.2925 31.034L26.1684 29.5635L22.4107 33.8992C22.049 34.3166 21.4175 34.3617 21.0001 34C20.5828 33.6383 20.5377 33.0067 20.8994 32.5894L24.5143 28.4183L18 23.9085Z" fill="#0099FF"/>
</svg>
