<svg width="60" height="60" viewBox="0 0 60 60" fill="none" xmlns="http://www.w3.org/2000/svg">
<circle opacity="0.1" cx="30" cy="30" r="30" fill="#0099FF"/>
<circle opacity="0.15" cx="30" cy="30" r="23" fill="#0099FF"/>
<path d="M34.0605 29.9691L36.2924 30.6582C36.827 30.8232 37.0622 31.4939 36.7643 31.9988C36.3273 32.7395 35.6349 33.644 34.7684 33.8697C33.2409 34.2675 30.8947 33.8791 27.9649 30.9391C25.4289 28.3942 24.7582 26.2748 24.9166 24.5935C25.0065 23.6399 25.7456 22.7791 26.3685 22.2127C26.7931 21.8265 27.4432 21.9857 27.6681 22.5326L28.6071 24.816C28.7305 25.1162 28.6912 25.465 28.5045 25.7246L28.028 26.3874C27.8271 26.667 27.8 27.0499 27.9636 27.3563C28.5308 28.4183 30.7517 30.5414 31.8075 31.0008C32.1121 31.1333 32.4613 31.0523 32.6915 30.8002L33.2373 30.2023C33.4511 29.9681 33.767 29.8786 34.0605 29.9691Z" fill="#0099FF"/>
<path fill-rule="evenodd" clip-rule="evenodd" d="M18.647 40.9861L25.2118 39.4433C26.8984 40.2767 28.7929 40.758 30.7978 40.7884C37.8733 40.8956 43.773 35.3229 43.9935 28.3072C44.2299 20.7869 37.9726 14.6556 30.3644 15.015C23.4419 15.342 17.9791 21.0605 18.0001 27.9349C18.0065 30.0286 18.516 32.0048 19.415 33.751L18.0348 40.3965C17.9601 40.7559 18.287 41.0707 18.647 40.9861ZM20.0001 27.9287C19.9824 22.1353 24.5947 17.2898 30.4588 17.0128C36.917 16.7077 42.1938 21.9052 41.9945 28.2444C41.8088 34.151 36.8296 38.8795 30.8281 38.7886C29.1268 38.7629 27.5241 38.355 26.0978 37.6503L25.4537 37.332L20.4707 38.503L21.5171 33.4648L21.1932 32.8356C20.4354 31.3636 20.0055 29.6982 20.0001 27.9287Z" fill="#0099FF"/>
</svg>
