<svg width="60" height="60" viewBox="0 0 60 60" fill="none" xmlns="http://www.w3.org/2000/svg">
<circle opacity="0.1" cx="30" cy="30" r="30" fill="#0099FF"/>
<circle opacity="0.15" cx="30" cy="30" r="23" fill="#0099FF"/>
<path d="M33.2223 36.4457C34.1273 36.0765 34.8199 35.5632 35.2913 34.9062C35.7639 34.2503 36.0011 33.5092 36 32.6853C36 32.001 35.8634 31.4195 35.5893 30.9435C35.3171 30.4681 34.9357 30.0746 34.4478 29.7659C33.9638 29.4563 33.3779 29.1965 32.6913 28.981C32.0034 28.7666 31.2379 28.5699 30.3939 28.3938C29.7209 28.2406 29.2368 28.1249 28.945 28.0448C28.6566 27.9667 28.3696 27.8582 28.0874 27.718C27.8054 27.5799 27.586 27.416 27.4282 27.2269C27.2729 27.0395 27.1957 26.8205 27.195 26.5606C27.196 26.1459 27.4215 25.792 27.8931 25.487C28.3619 25.1867 28.9829 25.0332 29.7591 25.0332C30.598 25.0315 31.2009 25.1742 31.5663 25.4485C31.9416 25.7279 32.2644 26.1186 32.5338 26.62C32.747 26.9794 32.9441 27.2372 33.1318 27.3992C33.3244 27.5666 33.6023 27.6457 33.9565 27.6457C34.3494 27.6469 34.6858 27.5102 34.9488 27.2419C35.2119 26.974 35.3468 26.6683 35.3468 26.3312C35.3468 25.9687 35.2421 25.5972 35.034 25.2169C34.8258 24.8377 34.4971 24.4763 34.0504 24.1337C33.6008 23.7903 33.0385 23.5167 32.3639 23.3093C31.6876 23.1035 30.8885 23 29.9647 23C28.8095 23 27.8011 23.1557 26.9446 23.4669C26.0851 23.7782 25.4259 24.2252 24.9703 24.8091C24.5145 25.3914 24.2868 26.0605 24.2868 26.8086C24.2868 27.5932 24.5025 28.2556 24.935 28.7886C25.3667 29.3163 25.9491 29.7341 26.6804 30.0398C27.4107 30.3443 28.3125 30.6094 29.3909 30.8372C30.1939 31.001 30.8347 31.1564 31.312 31.3029C31.7875 31.448 32.1706 31.6559 32.4673 31.9289C32.7613 32.1984 32.9046 32.544 32.9046 32.9792C32.9046 33.5249 32.6387 33.9765 32.0851 34.3476C31.5344 34.7154 30.8147 34.9019 29.9242 34.9019C29.2735 34.9019 28.7535 34.8103 28.3628 34.6272C27.9677 34.4445 27.6626 34.2111 27.4459 33.9316C27.2278 33.6486 27.0228 33.2938 26.8341 32.8695C26.6767 32.5032 26.4842 32.2256 26.2547 32.0347C26.0235 31.8437 25.7395 31.7473 25.4088 31.7473C25.0052 31.7473 24.6633 31.87 24.3978 32.1147C24.135 32.3576 24 32.6556 24 32.9982C24 33.579 24.2183 34.1746 24.6489 34.7829C25.0786 35.3907 25.6375 35.878 26.3248 36.2414C27.2943 36.7487 28.5225 37 30.0059 37C31.2437 37 32.3155 36.8158 33.2223 36.4457Z" fill="#0099FF"/>
<path fill-rule="evenodd" clip-rule="evenodd" d="M41.9147 31.8822C42.0117 31.2683 42.0628 30.6403 42.0628 29.9993C42.0628 23.3371 36.6621 17.9366 29.9995 17.9366C29.3602 17.9366 28.7304 17.9893 28.1171 18.0852C27.0061 17.3978 25.6948 17 24.2896 17C20.2637 17 17 20.2632 17 24.2894C17 25.6944 17.3981 27.0045 18.0852 28.1177C17.9901 28.7326 17.9377 29.3586 17.9377 29.9996C17.9377 36.6623 23.3383 42.0611 29.9993 42.0611C30.6392 42.0611 31.2692 42.0118 31.8824 41.915C32.9946 42.6011 34.3047 43 35.7097 43C39.7366 43 43 39.7359 43 35.7099C43.0003 34.3044 42.6025 32.9945 41.9147 31.8822ZM39.9392 31.5699L39.8234 32.3029L40.2136 32.934C40.7122 33.7403 41.0002 34.6874 41 35.7094C41 38.631 38.632 41 35.7097 41C34.6888 41 33.7404 40.7113 32.9325 40.2129L32.3022 39.824L31.5707 39.9395C31.0622 40.0197 30.5365 40.0611 29.9993 40.0611C24.4427 40.0611 19.9377 35.5576 19.9377 29.9996C19.9377 29.4682 19.9811 28.9446 20.0617 28.4234L20.1744 27.6947L19.7871 27.0672C19.2882 26.259 19 25.3109 19 24.2894C19 21.3679 21.3682 19 24.2896 19C25.3123 19 26.2606 19.2884 27.0648 19.786L27.6945 20.1756L28.4262 20.0612C28.9435 19.9803 29.4699 19.9366 29.9995 19.9366C35.5577 19.9366 40.0628 24.4417 40.0628 29.9993C40.0628 30.5337 40.0202 31.0573 39.9392 31.5699Z" fill="#0099FF"/>
</svg>
