<svg width="60" height="60" viewBox="0 0 60 60" fill="none" xmlns="http://www.w3.org/2000/svg">
<circle opacity="0.15" cx="30" cy="30" r="30" fill="#00D7BD"/>
<path d="M23.3029 28.303C22.9121 28.6937 22.9121 29.3272 23.3029 29.7179L29.291 35.7041C29.2932 35.7063 29.2954 35.7085 29.2976 35.7108C29.5045 35.9176 29.7794 36.0149 30.0503 36.0028C30.2912 35.992 30.529 35.8947 30.7129 35.7108C30.715 35.7086 30.7171 35.7065 30.7192 35.7044L45.7167 20.7116C46.1075 20.3209 46.1075 19.6875 45.7167 19.2968C45.3258 18.9061 44.6922 18.9061 44.3014 19.2968L30.0053 33.5885L24.7182 28.303C24.3273 27.9123 23.6937 27.9123 23.3029 28.303Z" fill="#00D7BD"/>
<path d="M44 30C44 37.732 37.732 44 30 44C22.268 44 16 37.732 16 30C16 22.268 22.268 16 30 16C33.6888 16 37.0445 17.4267 39.5452 19.7584C39.9592 20.1444 40.6097 20.1599 41.01 19.7597C41.3904 19.3794 41.403 18.7635 41.0128 18.3932C38.1442 15.6705 34.2672 14 30 14C21.1634 14 14 21.1634 14 30C14 38.8366 21.1634 46 30 46C38.8366 46 46 38.8366 46 30C46 28.536 45.8034 27.1178 45.4351 25.7706C45.2439 25.0714 44.3772 24.8826 43.8646 25.3951L43.8088 25.4508C43.5468 25.7128 43.454 26.0973 43.5475 26.4558C43.8428 27.5878 44 28.7755 44 30Z" fill="#00D7BD"/>
</svg>
