<svg width="60" height="60" viewBox="0 0 60 60" fill="none" xmlns="http://www.w3.org/2000/svg">
<circle opacity="0.15" cx="30" cy="30" r="30" fill="#0099FF"/>
<path d="M36 28H24V30H36V28Z" fill="#0099FF"/>
<path d="M24 32H33V34H24V32Z" fill="#0099FF"/>
<path d="M29 24H24V26H29V24Z" fill="#0099FF"/>
<path fill-rule="evenodd" clip-rule="evenodd" d="M32.7882 17.2689C32.603 17.0961 32.3591 17 32.1058 17H21C20.4477 17 20 17.4477 20 18V42C20 42.5523 20.4477 43 21 43H39C39.5523 43 40 42.5523 40 42V24.4346C40 24.1574 39.885 23.8926 39.6823 23.7035L32.7882 17.2689ZM33 20.2024L37.0688 24H33V20.2024ZM32 26H38V41H22V19H31V25C31 25.5523 31.4477 26 32 26Z" fill="#0099FF"/>
</svg>
