<svg width="60" height="60" viewBox="0 0 60 60" fill="none" xmlns="http://www.w3.org/2000/svg">
<circle opacity="0.15" cx="30" cy="30" r="30" fill="#FF1A66"/>
<path d="M29.057 14.6663C29.1944 14.2781 29.5647 14 30 14C30.5523 14 31 14.4477 31 15V28C31 28.5523 30.5523 29 30 29C29.4477 29 29 28.5523 29 28V18.8265L18.7155 37H41.2845L33.1268 22.5847C33.0418 22.4345 32.9971 22.2649 32.9971 22.0923C32.9971 21.065 34.3608 20.7059 34.8668 21.6L43.8688 37.5073C44.2461 38.174 43.7647 39 42.999 39H17.001C16.2353 39 15.7539 38.174 16.1312 37.5073L29.057 14.6663Z" fill="#FF1A66"/>
<path d="M29 32C29 31.4477 29.4477 31 30 31C30.5523 31 31 31.4477 31 32C31 32.5523 30.5523 33 30 33C29.4477 33 29 32.5523 29 32Z" fill="#FF1A66"/>
</svg>
