<svg width="55" height="30" viewBox="0 0 55 30" fill="none" xmlns="http://www.w3.org/2000/svg">
<path fill-rule="evenodd" clip-rule="evenodd" d="M20.5284 4.90857C23.1573 4.205 25.9066 4.00005 28.2093 4.00005H30.3837C30.9915 4.00005 31.5396 4.36415 31.7734 4.92312L33.8642 9.92312C34.2774 10.9112 33.5488 12 32.4746 12H14.9277C14.161 12 13.5092 11.5805 13.1895 10.97C12.8598 10.3404 12.9031 9.53198 13.4573 8.91388C15.3257 6.83009 17.9047 5.61077 20.5284 4.90857ZM15.1838 10H22.1876V6.56984C21.8056 6.64963 21.4254 6.73941 21.0491 6.84011C18.7617 7.45229 16.6861 8.45002 15.1838 10ZM31.7219 10H24.1949V6.23818C25.5861 6.06414 26.9563 6.00005 28.2093 6.00005H30.0492L31.7219 10Z" fill="white"/>
<path fill-rule="evenodd" clip-rule="evenodd" d="M44.4539 9.83887C46.4585 10.313 48.5647 11.0717 50.1513 12.3151C50.6367 12.2922 51.0944 12.336 51.4788 12.4746C53.1672 13.0832 54.0651 14.8862 54.0007 17.7769L53.9996 17.8238L53.9942 17.8703C53.9369 18.3622 53.7807 18.8497 53.45 19.2125C53.7921 20.0878 53.9817 21.0246 53.9817 22.0002C53.9817 23.1048 53.0863 24.0002 51.9817 24.0002H50.9626C50.7072 27.3563 47.9031 30 44.4816 30C41.06 30 38.2558 27.3563 38.0005 24L18.9626 24.0001C18.7073 27.3563 15.9032 30 12.4816 30C9.05996 30 6.25583 27.3563 6.00051 24.0001L2.86039 24C1.31865 24 -0.132846 22.7739 0.00969905 21.0443C0.723211 12.3867 9.00004 0.000581443 26.9816 4.52399e-05L30.3255 0C32.3372 4.51803e-05 34.1531 0.705622 34.9338 2.55973L37.6455 9.00004L37.6462 9.00127L37.6488 9.00348C37.6521 9.00568 37.658 9.00829 37.667 9.00851C39.3178 9.04766 41.9047 9.23584 44.4539 9.83887ZM26.9816 2.00005L30.3255 2C31.5326 2.00003 32.6222 2.22348 33.0905 3.33585L35.8022 9.77616C36.1152 10.5195 36.8342 10.9893 37.6195 11.0079C39.1893 11.0452 41.6264 11.2252 43.9935 11.7852C45.2392 12.0798 46.4134 12.4679 47.4201 12.9647C47.0737 13.1056 46.7652 13.2554 46.5189 13.3992C44.4815 12.8971 42.2382 13.003 40.1202 13.9755C38.2213 14.8475 36.4776 16.3909 35.0858 18.7103C34.8016 19.1838 34.9951 19.79 35.4851 20.0448C35.9751 20.2996 36.5753 20.1063 36.8637 19.6353C38.0614 17.679 39.4928 16.4644 40.9548 15.7931C42.627 15.0252 44.408 14.936 46.0535 15.3444C49.4135 16.1783 51.9816 18.9919 51.9817 22.0002H50.8077C50.1306 19.1334 47.5552 17 44.4816 17C41.408 17 38.8327 19.1333 38.1555 22H18.8076C18.1305 19.1333 15.5552 17 12.4816 17C9.40798 17 6.83266 19.1333 6.1555 22H2.86039C2.75559 22 2.65931 21.986 2.57215 21.9608C4.18327 18.9746 6.97559 16.3148 10.0386 15.3268C11.7808 14.7648 13.5946 14.7456 15.3611 15.485C16.9453 16.1482 18.5675 17.4539 20.0856 19.6788C20.3969 20.1351 21.0098 20.2872 21.4816 20.0001C21.9533 19.7129 22.1052 19.0958 21.7962 18.638C20.0947 16.1167 18.1717 14.4934 16.1333 13.6401C13.8685 12.6921 11.5573 12.7354 9.42457 13.4234C6.73133 14.2921 4.29933 16.1911 2.48061 18.4857C4.44251 11.0484 12.0349 2.00049 26.9816 2.00005ZM12.4816 19C14.4409 19 16.1078 20.2523 16.7255 22.0001C16.8913 22.4692 16.9816 22.9741 16.9816 23.5C16.9816 25.9853 14.9668 28 12.4816 28C9.99629 28 7.98157 25.9853 7.98157 23.5C7.98157 22.9741 8.0718 22.4692 8.23762 22.0001C8.85537 20.2523 10.5222 19 12.4816 19ZM49.2174 14.4811C49.7862 14.2633 50.3678 14.2 50.8006 14.356C51.2046 14.5017 51.8443 14.9949 51.9788 16.7649C51.2136 15.8573 50.2691 15.0813 49.2174 14.4811ZM44.4816 28C46.9669 28 48.9816 25.9853 48.9816 23.5C48.9816 21.0148 46.9669 19 44.4816 19C41.9963 19 39.9816 21.0148 39.9816 23.5C39.9816 25.9853 41.9963 28 44.4816 28Z" fill="white"/>
</svg>
