<svg width="44" height="30" viewBox="0 0 44 30" fill="none" xmlns="http://www.w3.org/2000/svg">
<path fill-rule="evenodd" clip-rule="evenodd" d="M26.8755 4.22041C26.5879 3.73171 26.7636 3.09963 27.2895 2.88751C28.2262 2.5097 29.4869 2.11777 31 2.00489C31.5508 1.96381 31.9994 1.52018 31.9994 0.968C31.9994 0.415819 31.5 0.00527998 30.9997 0.000490283C27.6845 -0.0312506 25.2978 1.48619 24.3753 2.224C23.9871 2.53456 23.886 3.08315 24.1381 3.51165L27.1928 9.00395H16.182L15.145 7.00435H18C18.5523 7.00435 19 6.55672 19 6.00454C19 5.45235 18.5523 5.00472 18 5.00472H12C11.4477 5.00472 11 5.45235 11 6.00454C11 6.55672 11.4477 7.00435 12 7.00435H12.8921L14.5435 10.1885L11.4727 14.7939C10.4224 14.2871 9.24435 14.003 8 14.003C3.58172 14.003 0 17.5841 0 22.0015C0 26.419 3.58172 30 8 30C12.0796 30 15.446 26.9469 15.9381 23.0013H18.126C18.57 24.7262 20.1362 26.0008 22 26.0008C24.2091 26.0008 26 24.2102 26 22.0015C26 21.1957 25.7616 20.4455 25.3515 19.8176L30.2382 14.1802L31.1135 15.668C29.2197 17.1307 28 19.4237 28 22.0015C28 26.419 31.5817 30 36 30C40.4183 30 44 26.419 44 22.0015C44 17.5841 40.4183 14.003 36 14.003C34.8764 14.003 33.8068 14.2346 32.8366 14.6527L26.8755 4.22041ZM23.8749 18.4679L29.1381 12.3962L28.3023 11.0036H17.219L20.9245 18.1485C21.2667 18.0532 21.6274 18.0023 22 18.0023C22.6775 18.0023 23.3157 18.1707 23.8749 18.4679ZM15.5951 12.2163L13.1511 15.8815C14.653 17.1464 15.6827 18.9538 15.9381 21.0017H18.126C18.3094 20.2892 18.6843 19.6536 19.1925 19.1529L15.5951 12.2163ZM13.917 21.0017C13.6895 19.646 13.0073 18.4445 12.0324 17.5593L9.73703 21.0017H13.917ZM10.3486 16.4796C9.62727 16.1726 8.83348 16.0026 8 16.0026C4.68629 16.0026 2 18.6884 2 22.0015C2 25.3146 4.68629 28.0004 8 28.0004C10.973 28.0004 13.441 25.8385 13.917 23.0013H7.86885C7.07016 23.0013 6.59343 22.1113 7.03647 21.4469L10.3486 16.4796ZM30 22.0015C30 20.159 30.8309 18.5104 32.1384 17.41L34.6311 21.6467C34.9111 22.1226 35.524 22.2815 36 22.0015C36.4761 21.7215 36.635 21.1088 36.3549 20.6328L33.8616 16.3949C34.5258 16.1414 35.2467 16.0026 36 16.0026C39.3137 16.0026 42 18.6884 42 22.0015C42 25.3146 39.3137 28.0004 36 28.0004C32.6863 28.0004 30 25.3146 30 22.0015ZM22 24.0011C23.1046 24.0011 24 23.1059 24 22.0015C24 20.8972 23.1046 20.0019 22 20.0019C20.8954 20.0019 20 20.8972 20 22.0015C20 23.1059 20.8954 24.0011 22 24.0011Z" fill="white"/>
</svg>
