<svg width="54" height="30" viewBox="0 0 54 30" fill="none" xmlns="http://www.w3.org/2000/svg">
<path d="M2 19H4V23C4 24.1046 4.89543 25 6 25H8C8.55229 25 8.99127 24.5489 9.08226 24.0042C9.55661 21.1644 12.0255 19 15 19C17.9745 19 20.4434 21.1644 20.9177 24.0042C21.0087 24.5489 21.4477 25 22 25H24V26C24 26.5523 24.4477 27 25 27H34C34.5523 27 35 26.5523 35 26V25H37C37.5523 25 37.9913 24.5489 38.0823 24.0042C38.5566 21.1644 41.0255 19 44 19C46.9745 19 49.4434 21.1644 49.9177 24.0042C50.0087 24.5489 50.4477 25 51 25H53C53.5523 25 54 24.5523 54 24V14.6696C54 14.1363 53.9289 13.6054 53.7886 13.0909L51.1657 3.47377C50.9284 2.60364 50.1381 2 49.2362 2H35C33.8954 2 33 2.89543 33 4V17H32V2C32 0.895431 31.1046 0 30 0H2C0.895431 0 0 0.895431 0 2V17C0 18.1046 0.895431 19 2 19ZM30 2H2V17H30V2ZM33 19H26V25H33V19ZM51.748 23H52V14.1339L49.4372 4.73688C49.3185 4.30182 48.9234 4 48.4724 4H36C35.4477 4 35 4.44772 35 5V23H36.252C37.1401 19.5495 40.2723 17 44 17C47.7277 17 50.8599 19.5495 51.748 23ZM6 23V19H9.70835C8.52754 20.0422 7.65676 21.4276 7.25204 23H6ZM22.748 23C22.3432 21.4276 21.4725 20.0422 20.2916 19H24V23H22.748ZM37 7.2C37 6.53726 37.5373 6 38.2 6H46.2457C47.1387 6 47.9234 6.59196 48.1687 7.45056L49.8887 13.4703C50.1077 14.2369 49.5321 15 48.7349 15H38.2C37.5373 15 37 14.4627 37 13.8V7.2ZM39 8V13H47.6743L46.2457 8H39ZM15 30C17.7614 30 20 27.7614 20 25C20 22.2386 17.7614 20 15 20C12.2386 20 10 22.2386 10 25C10 27.7614 12.2386 30 15 30ZM15 28C16.6569 28 18 26.6569 18 25C18 23.3431 16.6569 22 15 22C13.3431 22 12 23.3431 12 25C12 26.6569 13.3431 28 15 28ZM49 25C49 27.7614 46.7614 30 44 30C41.2386 30 39 27.7614 39 25C39 22.2386 41.2386 20 44 20C46.7614 20 49 22.2386 49 25ZM47 25C47 26.6569 45.6569 28 44 28C42.3431 28 41 26.6569 41 25C41 23.3431 42.3431 22 44 22C45.6569 22 47 23.3431 47 25Z" fill="white"/>
<path d="M2 19H4V23C4 24.1046 4.89543 25 6 25H8C8.55229 25 8.99127 24.5489 9.08226 24.0042C9.55661 21.1644 12.0255 19 15 19C17.9745 19 20.4434 21.1644 20.9177 24.0042C21.0087 24.5489 21.4477 25 22 25H24V26C24 26.5523 24.4477 27 25 27H34C34.5523 27 35 26.5523 35 26V25H37C37.5523 25 37.9913 24.5489 38.0823 24.0042C38.5566 21.1644 41.0255 19 44 19C46.9745 19 49.4434 21.1644 49.9177 24.0042C50.0087 24.5489 50.4477 25 51 25H53C53.5523 25 54 24.5523 54 24V14.6696C54 14.1363 53.9289 13.6054 53.7886 13.0909L51.1657 3.47377C50.9284 2.60364 50.1381 2 49.2362 2H35C33.8954 2 33 2.89543 33 4V17H32V2C32 0.895431 31.1046 0 30 0H2C0.895431 0 0 0.895431 0 2V17C0 18.1046 0.895431 19 2 19ZM30 2H2V17H30V2ZM33 19H26V25H33V19ZM51.748 23H52V14.1339L49.4372 4.73688C49.3185 4.30182 48.9234 4 48.4724 4H36C35.4477 4 35 4.44772 35 5V23H36.252C37.1401 19.5495 40.2723 17 44 17C47.7277 17 50.8599 19.5495 51.748 23ZM6 23V19H9.70835C8.52754 20.0422 7.65676 21.4276 7.25204 23H6ZM22.748 23C22.3432 21.4276 21.4725 20.0422 20.2916 19H24V23H22.748ZM37 7.2C37 6.53726 37.5373 6 38.2 6H46.2457C47.1387 6 47.9234 6.59196 48.1687 7.45056L49.8887 13.4703C50.1077 14.2369 49.5321 15 48.7349 15H38.2C37.5373 15 37 14.4627 37 13.8V7.2ZM39 8V13H47.6743L46.2457 8H39ZM15 30C17.7614 30 20 27.7614 20 25C20 22.2386 17.7614 20 15 20C12.2386 20 10 22.2386 10 25C10 27.7614 12.2386 30 15 30ZM15 28C16.6569 28 18 26.6569 18 25C18 23.3431 16.6569 22 15 22C13.3431 22 12 23.3431 12 25C12 26.6569 13.3431 28 15 28ZM49 25C49 27.7614 46.7614 30 44 30C41.2386 30 39 27.7614 39 25C39 22.2386 41.2386 20 44 20C46.7614 20 49 22.2386 49 25ZM47 25C47 26.6569 45.6569 28 44 28C42.3431 28 41 26.6569 41 25C41 23.3431 42.3431 22 44 22C45.6569 22 47 23.3431 47 25Z" stroke="white"/>
</svg>
