<svg width="44" height="30" viewBox="0 0 44 30" fill="none" xmlns="http://www.w3.org/2000/svg">
<path fill-rule="evenodd" clip-rule="evenodd" d="M4.99999 0C13.5 0.5 14 10 14 10H36C44 10 44 17 44 17V18C44 20.2091 42.2092 22 40 22H33.1153C32.3019 22 31.8288 21.0806 32.3015 20.4188C32.4893 20.156 32.7923 20 33.1153 20H40C41.1046 20 42 19.1046 42 18V17.0137L41.9995 16.9975C41.9986 16.9732 41.9963 16.9269 41.991 16.8619C41.9803 16.7312 41.9577 16.5292 41.9103 16.2805C41.8933 16.1912 41.8734 16.0974 41.8502 16H38C37.4477 16 37 15.5523 37 15C37 14.4477 37.4477 14 38 14H40.9419C40.1959 13.0004 38.8098 12 36 12H13.0512C12.5194 12 12.0806 11.5837 12.0526 11.0526L12.003 10.1105L12.0028 10.1064C12.0022 10.0983 12.0011 10.0817 11.999 10.0572C11.995 10.0083 11.9877 9.9283 11.9753 9.82147C11.9504 9.60728 11.9056 9.28873 11.8279 8.90004C11.6708 8.11463 11.3875 7.08556 10.8895 6.06344C10.0332 4.30563 8.60313 2.63942 6 2.13469L6 10H8C8.55229 10 9 10.4477 9 11C9 11.5523 8.55229 12 8 12H6C6 14.0184 7.34542 15.9776 9.91489 17.5416C12.4546 19.0875 15.8403 20 19 20H20.2857L21.7402 16.6061C21.8978 16.2384 22.2593 16 22.6594 16H31.0568C31.8701 16 32.3433 16.9194 31.8705 17.5812L24.1964 28.325C23.4456 29.3761 22.2333 30 20.9415 30H19.033C17.5972 30 16.6291 28.5319 17.1947 27.2122L19.4285 22H19C12 22 4 18 4 12H1C0.447715 12 0 11.5523 0 11C0 10.4477 0.447715 10 1 10H4L4 1.00117C4 0.448882 4.44771 0 4.99999 0ZM23.1889 18.303C23.2677 18.1192 23.4484 18 23.6485 18H28.142C28.5487 18 28.7852 18.4597 28.5489 18.7906L22.569 27.1625C22.1935 27.6881 21.5874 28 20.9415 28H19.7913C19.4324 28 19.1903 27.633 19.3317 27.303L23.1889 18.303Z" fill="white"/>
</svg>
