<svg width="44" height="30" viewBox="0 0 44 30" fill="none" xmlns="http://www.w3.org/2000/svg">
<path d="M5 17C4.44772 17 4 17.4477 4 18C4 18.5523 4.44772 19 5 19H11C11.5523 19 12 18.5523 12 18C12 17.4477 11.5523 17 11 17H5Z" fill="white"/>
<path fill-rule="evenodd" clip-rule="evenodd" d="M28.7587 25.0637C23.9718 25.0806 18.4147 25.0817 14.0801 25.0298H13.9916C13.5005 27.8528 11.0253 30 8.04577 30C4.7131 30 2.01144 27.3137 2.01144 24C2.01144 23.6593 2.04 23.3252 2.09487 23H1.00572C0.450277 23 0 22.5551 0 22.0028V19C0 14.5817 3.60221 10.9999 8.04577 10.9999V8C8.04577 7.44772 8.49604 7 9.05149 7H21.1201C21.6756 7 22.1259 7.44772 22.1259 8V12.4998C22.1259 13.0521 21.6663 13.4871 21.133 13.6415C17.8512 14.5915 16.3297 19.5 21.1201 19.5C27.292 19.5 30.9855 18.3349 30.1716 12.5C29.9219 10.7097 29.6361 9.07458 29.3598 7.49411C29.1533 6.31289 28.9521 5.16218 28.7754 4H25.143C24.5876 4 24.1373 3.55228 24.1373 3C24.1373 2.44772 24.5876 2 25.143 2H28.4696C28.421 1.68434 28.3771 1.39924 28.3385 1.14974C28.2449 0.54337 28.7172 0 29.3342 0H31.4015C31.8613 0 32.2619 0.308096 32.3764 0.750837C32.5376 1.37399 32.7107 2.03671 32.893 2.73018C33.4354 1.94912 34.2498 1.36924 35.2002 1.12602C35.5217 1.04375 35.8587 1 36.206 1C36.5532 1 36.8902 1.04375 37.2117 1.12602V8.87398C36.8902 8.95625 36.5532 9 36.206 9C35.8587 9 35.5217 8.95625 35.2002 8.87398C34.9425 8.80802 34.6947 8.71729 34.4597 8.6045C34.8006 9.86949 35.1486 10.8911 35.4936 11.9039C35.821 12.8651 36.1457 13.8182 36.459 14.9638C36.5549 15.3144 36.626 15.6648 36.6735 16.0133C40.1753 16.2128 43.0771 18.639 43.9688 21.8897C44.128 22.4699 43.6554 23 43.0505 23H42.1546C42.2091 23.3241 42.2374 23.657 42.2374 23.9965C42.2374 27.3102 39.5358 29.9965 36.2031 29.9965C33.1877 29.9965 30.6888 27.7973 30.2404 24.924C29.7625 25.0139 29.2675 25.062 28.7587 25.0637ZM11.9419 23C12.0246 23.3196 12.0687 23.6547 12.0687 24C12.0687 26.2091 10.2675 28 8.04577 28C5.82399 28 4.02288 26.2091 4.02288 24C4.02288 23.6547 4.06689 23.3196 4.14962 23H11.9419ZM32.1907 24.2876C32.3407 26.3608 34.0798 27.9965 36.2031 27.9965C38.4249 27.9965 40.226 26.2056 40.226 23.9965C40.226 23.6525 40.1823 23.3186 40.1002 23H34.1087C33.5406 23.5148 32.8962 23.9508 32.1907 24.2876ZM35.7099 21C36.2244 20.0925 36.5645 19.0815 36.6912 18.0191C38.7199 18.1796 40.4659 19.3377 41.433 21H35.7099ZM9.05149 13L9.03561 12.9999H8.04577C4.71314 12.9999 2.01144 15.6863 2.01144 19V21H13.0744C13.6298 21 14.0801 21.4477 14.0801 22V23.0296C18.4018 23.0816 23.9579 23.0806 28.7516 23.0638C32.7005 23.0499 35.5612 19.3026 34.5181 15.4886C33.9066 13.2526 33.251 11.0628 32.6162 8.94227C31.8932 6.527 31.197 4.20155 30.6234 2H30.5043C30.5355 2.20325 30.5683 2.41724 30.6025 2.64042C31.0263 5.40564 31.6663 9.58237 32.164 12.2253C32.3947 13.8794 32.3349 15.391 31.8665 16.7178C31.3823 18.0893 30.507 19.1313 29.355 19.8693C27.2131 21.2415 24.1895 21.5 21.1201 21.5C19.557 21.5 18.1322 21.0525 17.155 19.9894C16.178 18.9266 15.9535 17.5798 16.1048 16.4199C16.2894 15.0037 17.0677 14.0469 18.2611 13H9.05149ZM20.1144 9V10.9999H10.0572V9H20.1144ZM34.1945 5C34.1945 5.74028 34.599 6.38663 35.2002 6.73244V3.26756C34.599 3.61337 34.1945 4.25972 34.1945 5Z" fill="white"/>
</svg>
