<svg width="61" height="61" viewBox="0 0 61 61" fill="none" xmlns="http://www.w3.org/2000/svg">
<circle opacity="0.1" cx="30.0877" cy="30.0178" r="30" fill="#0099FF"/>
<circle opacity="0.15" cx="30.0877" cy="30.0178" r="23" fill="#0099FF"/>
<path d="M32.9287 27.1768C33.7098 27.9579 34.9761 27.9579 35.7571 27.1768C36.5382 26.3958 36.5382 25.1294 35.7571 24.3484C34.9761 23.5673 33.7098 23.5673 32.9287 24.3484C32.1477 25.1294 32.1477 26.3958 32.9287 27.1768Z" fill="#0099FF"/>
<path fill-rule="evenodd" clip-rule="evenodd" d="M22.0583 34.9685C21.6737 34.5839 21.6785 33.9555 22.069 33.565L23.7839 31.85L23.8096 31.7649C23.8639 31.586 23.9195 31.4094 23.9764 31.2352C24.1097 30.8265 24.2499 30.4307 24.3965 30.0476L20.0603 27.0629C19.5694 26.725 19.6876 25.9853 20.2706 25.8337C20.5089 25.7718 20.7701 25.7075 21.048 25.6443C21.1403 25.6234 21.2343 25.6026 21.33 25.582L21.3524 25.5772L21.3798 25.5714L21.4099 25.565C22.0591 25.4279 22.7792 25.3042 23.5031 25.2337C23.6605 25.2184 23.8182 25.2055 23.9753 25.1956C24.1962 25.1817 24.4161 25.1736 24.633 25.1723C25.1571 25.1693 25.6641 25.2067 26.1269 25.3003C26.3464 25.3447 26.556 25.4019 26.7528 25.4733L26.7937 25.4885C27.2136 24.8941 27.6522 24.3496 28.1045 23.8507C30.0714 21.6808 32.2964 20.3743 34.3638 19.5933C36.3101 18.8581 38.1167 18.5886 39.4367 18.503C39.4899 18.4995 39.5424 18.4964 39.594 18.4935C40.0942 18.4656 40.518 18.4641 40.8446 18.4721C41.2884 18.4829 41.6226 18.8171 41.6335 19.2609C41.6415 19.5876 41.6399 20.0113 41.6121 20.5115C41.6092 20.5632 41.606 20.6156 41.6026 20.6689C41.5169 21.9889 41.2475 23.7955 40.5122 25.7418C39.7312 27.8091 38.4247 30.034 36.2548 32.001C35.7559 32.4533 35.2111 32.892 34.6168 33.312L34.6322 33.3527C34.7037 33.5494 34.7608 33.7591 34.8052 33.9786C34.8989 34.4414 34.9362 34.9485 34.9332 35.4725C34.932 35.6895 34.9238 35.9094 34.9099 36.1303C34.9 36.2874 34.8871 36.445 34.8718 36.6024C34.8013 37.3263 34.6776 38.0464 34.5405 38.6956L34.5341 38.7257L34.5235 38.7755C34.5029 38.8712 34.4821 38.9653 34.4612 39.0575C34.398 39.3354 34.3337 39.5966 34.2718 39.8349C34.1202 40.4179 33.3806 40.5361 33.0426 40.0452L30.0579 35.709C29.6747 35.8555 29.279 35.9957 28.8702 36.1291C28.6961 36.1859 28.5195 36.2415 28.3406 36.2958L28.2555 36.3215L26.5405 38.0365C26.15 38.427 25.5216 38.4318 25.137 38.0472L22.0583 34.9685ZM31.888 34.9173L32.9384 36.4434L32.9447 36.3773C32.9552 36.2635 32.9641 36.1501 32.9712 36.0375C33.0151 35.341 32.9805 34.8122 32.9093 34.4331L32.9006 34.3897L32.8617 34.4113C32.5604 34.5783 32.2489 34.7408 31.9268 34.8984L31.888 34.9173ZM25.8544 35.9965L24.109 34.2511L24.801 33.5591L26.5464 35.3045L25.8544 35.9965ZM28.3387 34.2684L28.2932 34.2832L25.8222 31.8123L25.8371 31.7668C25.9558 31.4054 26.0801 31.0557 26.2095 30.7173C26.4076 30.1994 26.6178 29.7079 26.8386 29.2414C26.8696 29.1758 26.9009 29.1107 26.9323 29.0461C27.0866 28.7292 27.2459 28.424 27.4096 28.1303C27.4461 28.0646 27.483 27.9995 27.52 27.9349C27.7938 27.4577 28.0794 27.0111 28.3746 26.5933C28.6014 26.2723 28.8339 25.9683 29.071 25.6803C30.9332 23.4181 33.082 22.1436 35.0259 21.4092C35.957 21.0575 36.8546 20.8255 37.6689 20.6746C38.0158 20.6102 38.3477 20.5606 38.6605 20.5227C38.9713 20.485 39.2634 20.4589 39.533 20.4414C39.5657 20.4393 39.598 20.4373 39.63 20.4355L39.6725 20.433L39.6701 20.4756C39.6682 20.5075 39.6662 20.5399 39.6641 20.5726C39.6466 20.8422 39.6205 21.1344 39.5828 21.4452C39.5449 21.758 39.4953 22.0898 39.431 22.4367C39.28 23.2509 39.048 24.1485 38.6963 25.0796C37.9619 27.0236 36.6873 29.1726 34.4248 31.0348C34.1369 31.2718 33.833 31.5041 33.5122 31.7308C33.0942 32.0262 32.6474 32.3119 32.17 32.5858C32.1056 32.6227 32.0407 32.6594 31.9752 32.6959C31.6815 32.8596 31.3763 33.0188 31.0594 33.1731C30.995 33.2045 30.9301 33.2356 30.8647 33.2666C30.398 33.4875 29.9063 33.6977 29.3882 33.8959C29.0498 34.0254 28.7001 34.1497 28.3387 34.2684ZM25.6723 27.1962L25.7158 27.2047L25.6941 27.2438C25.5272 27.5451 25.3647 27.8566 25.2071 28.1787L25.1881 28.2175L23.6621 27.1671L23.7283 27.1608C23.842 27.1503 23.9554 27.1414 24.068 27.1343C24.7645 27.0904 25.2932 27.1251 25.6723 27.1962Z" fill="#0099FF"/>
<path d="M22.2987 39.1996C22.6892 38.8091 23.3176 38.8043 23.7022 39.1889C24.0868 39.5735 24.082 40.2019 23.6915 40.5924L21.5702 42.7137C21.1797 43.1042 20.5513 43.109 20.1667 42.7244C19.7821 42.3398 19.7869 41.7114 20.1774 41.3209L22.2987 39.1996Z" fill="#0099FF"/>
<path d="M19.5131 36.414C19.9036 36.0235 20.532 36.0187 20.9166 36.4033C21.3012 36.7879 21.2964 37.4163 20.9059 37.8068L18.7846 39.9281C18.3941 40.3186 17.7657 40.3234 17.3811 39.9388C16.9965 39.5542 17.0013 38.9258 17.3918 38.5353L19.5131 36.414Z" fill="#0099FF"/>
<path d="M17.9737 32.0462C17.5832 32.4367 17.5784 33.0651 17.963 33.4497C18.3476 33.8343 18.976 33.8295 19.3665 33.439L21.4879 31.3177C21.8784 30.9271 21.8832 30.2988 21.4986 29.9142C21.114 29.5295 20.4856 29.5343 20.0951 29.9249L17.9737 32.0462Z" fill="#0099FF"/>
<path d="M15.8524 34.1675C15.4619 34.558 15.4571 35.1864 15.8417 35.571C16.2263 35.9556 16.8547 35.9508 17.2452 35.5603C17.6358 35.1698 17.6405 34.5414 17.2559 34.1568C16.8713 33.7722 16.2429 33.777 15.8524 34.1675Z" fill="#0099FF"/>
<path d="M28.7878 38.6176C29.1783 38.2271 29.8067 38.2223 30.1913 38.6069C30.5759 38.9915 30.5711 39.6199 30.1806 40.0104L28.0593 42.1317C27.6688 42.5223 27.0404 42.5271 26.6558 42.1424C26.2712 41.7578 26.276 41.1295 26.6665 40.7389L28.7878 38.6176Z" fill="#0099FF"/>
<path d="M24.5452 42.8603C24.9357 42.4697 25.5641 42.4649 25.9487 42.8495C26.3333 43.2342 26.3285 43.8625 25.938 44.2531C25.5474 44.6436 24.9191 44.6484 24.5345 44.2638C24.1498 43.8791 24.1546 43.2508 24.5452 42.8603Z" fill="#0099FF"/>
</svg>
