<svg width="60" height="60" viewBox="0 0 60 60" fill="none" xmlns="http://www.w3.org/2000/svg">
<circle opacity="0.1" cx="30" cy="30" r="30" fill="#0099FF"/>
<circle opacity="0.15" cx="30" cy="30" r="23" fill="#0099FF"/>
<mask id="path-3-inside-1" fill="white">
<path fill-rule="evenodd" clip-rule="evenodd" d="M30.7451 14.2676C30.3198 13.9108 29.6802 13.9108 29.2549 14.2676C27.7171 15.5578 23.9197 18.2894 18.9993 18.626C18.4483 18.6637 18 19.108 18 19.6602V31.8238C18 40.4308 30 46 30 46C30 46 42 40.4308 42 31.8238V19.6602C42 19.108 41.5517 18.6637 41.0007 18.626C36.0803 18.2894 32.2829 15.5578 30.7451 14.2676Z"/>
</mask>
<path d="M30 46L29.1581 47.8141L30 48.2049L30.842 47.8141L30 46ZM29.2549 14.2676L27.9695 12.7354L29.2549 14.2676ZM30.7451 14.2676L32.0306 12.7354L30.7451 14.2676ZM41.0007 18.626L40.8642 20.6213L41.0007 18.626ZM19.1358 20.6213C24.6831 20.2419 28.882 17.1912 30.5404 15.7998L27.9695 12.7354C26.5523 13.9244 23.1562 16.337 18.8628 16.6307L19.1358 20.6213ZM20 31.8238V19.6602H16V31.8238H20ZM30 46C30.842 44.1859 30.8424 44.1861 30.8429 44.1863C30.8429 44.1863 30.8433 44.1865 30.8435 44.1866C30.8438 44.1867 30.844 44.1868 30.844 44.1868C30.8439 44.1868 30.8432 44.1864 30.8417 44.1857C30.8388 44.1844 30.8331 44.1817 30.8247 44.1777C30.8078 44.1697 30.7802 44.1564 30.7424 44.138C30.6668 44.1011 30.5509 44.0436 30.4005 43.9661C30.0995 43.8109 29.6618 43.5765 29.1331 43.268C28.0714 42.6483 26.6658 41.7428 25.2707 40.5951C22.3828 38.2191 20 35.1898 20 31.8238H16C16 37.0648 19.6172 41.1236 22.7293 43.684C24.3342 45.0044 25.9286 46.0291 27.1169 46.7227C27.7132 47.0707 28.213 47.3387 28.5682 47.5217C28.746 47.6133 28.8879 47.6838 28.9881 47.7327C29.0382 47.7572 29.0779 47.7763 29.1065 47.7898C29.1208 47.7966 29.1323 47.8021 29.1409 47.8061C29.1452 47.8081 29.1488 47.8098 29.1517 47.8112C29.1531 47.8118 29.1543 47.8124 29.1554 47.8129C29.1559 47.8132 29.1566 47.8135 29.1569 47.8136C29.1575 47.8139 29.1581 47.8141 30 46ZM30 46C30.842 47.8141 30.8425 47.8139 30.8431 47.8136C30.8434 47.8135 30.8441 47.8132 30.8446 47.8129C30.8457 47.8124 30.8469 47.8118 30.8483 47.8112C30.8512 47.8098 30.8548 47.8081 30.8591 47.8061C30.8677 47.8021 30.8792 47.7966 30.8935 47.7898C30.9221 47.7763 30.9618 47.7572 31.0119 47.7327C31.1121 47.6838 31.2541 47.6133 31.4318 47.5217C31.787 47.3387 32.2868 47.0707 32.8831 46.7227C34.0714 46.0291 35.6658 45.0044 37.2707 43.684C40.3828 41.1236 44 37.0648 44 31.8238H40C40 35.1898 37.6172 38.2191 34.7293 40.5951C33.3342 41.7428 31.9286 42.6483 30.8669 43.268C30.3382 43.5765 29.9005 43.8109 29.5995 43.9661C29.4491 44.0436 29.3332 44.1011 29.2576 44.138C29.2198 44.1564 29.1922 44.1697 29.1753 44.1777C29.1669 44.1817 29.1612 44.1844 29.1583 44.1857C29.1568 44.1864 29.1561 44.1868 29.156 44.1868C29.156 44.1868 29.1562 44.1867 29.1565 44.1866C29.1567 44.1865 29.1571 44.1863 29.1571 44.1863C29.1576 44.1861 29.1581 44.1859 30 46ZM44 31.8238V19.6602H40V31.8238H44ZM41.1372 16.6307C36.8438 16.337 33.4477 13.9245 32.0306 12.7354L29.4596 15.7998C31.118 17.1912 35.3169 20.2419 40.8642 20.6213L41.1372 16.6307ZM30.5404 15.7998C30.2222 16.0667 29.7778 16.0667 29.4596 15.7998L32.0306 12.7354C30.8618 11.7549 29.1382 11.7549 27.9695 12.7354L30.5404 15.7998ZM44 19.6602C44 17.9715 42.6505 16.7342 41.1372 16.6307L40.8642 20.6213C40.453 20.5932 40 20.2444 40 19.6602H44ZM18.8628 16.6307C17.3495 16.7342 16 17.9715 16 19.6602H20C20 20.2444 19.547 20.5932 19.1358 20.6213L18.8628 16.6307Z" fill="#0099FF" mask="url(#path-3-inside-1)"/>
<mask id="path-5-inside-2" fill="white">
<path fill-rule="evenodd" clip-rule="evenodd" d="M22 22.2312V31.8238C22 34.2522 23.7656 36.7668 26.5413 39.0506C27.7716 40.0627 29.0209 40.8788 30 41.4576C30.9791 40.8788 32.2284 40.0627 33.4587 39.0506C36.2344 36.7668 38 34.2522 38 31.8238V22.2312C34.612 21.505 31.8563 19.9885 30 18.7157C28.1437 19.9885 25.388 21.505 22 22.2312Z"/>
</mask>
<path d="M22 22.2312L21.5808 20.2756L20 20.6145V22.2312H22ZM26.5413 39.0506L27.812 37.5061L27.812 37.5061L26.5413 39.0506ZM30 41.4576L28.9821 43.1792L30 43.7811L31.0179 43.1792L30 41.4576ZM33.4587 39.0506L32.188 37.5061L33.4587 39.0506ZM38 22.2312H40V20.6145L38.4192 20.2756L38 22.2312ZM30 18.7157L31.131 17.0662L30 16.2907L28.869 17.0662L30 18.7157ZM24 31.8238V22.2312H20V31.8238H24ZM27.812 37.5061C25.1523 35.3178 24 33.3175 24 31.8238H20C20 35.1869 22.3788 38.2158 25.2707 40.595L27.812 37.5061ZM31.0179 39.736C30.1007 39.1938 28.9418 38.4356 27.812 37.5061L25.2707 40.595C26.6014 41.6898 27.9411 42.5638 28.9821 43.1792L31.0179 39.736ZM32.188 37.5061C31.0582 38.4356 29.8993 39.1938 28.9821 39.7361L31.0179 43.1792C32.0589 42.5638 33.3986 41.6898 34.7293 40.595L32.188 37.5061ZM36 31.8238C36 33.3175 34.8477 35.3178 32.188 37.5061L34.7293 40.595C37.6212 38.2158 40 35.1869 40 31.8238H36ZM36 22.2312V31.8238H40V22.2312H36ZM28.869 20.3652C30.8641 21.7332 33.8609 23.3894 37.5808 24.1868L38.4192 20.2756C35.3632 19.6206 32.8485 18.2438 31.131 17.0662L28.869 20.3652ZM22.4192 24.1868C26.1391 23.3894 29.1359 21.7332 31.131 20.3652L28.869 17.0662C27.1516 18.2438 24.6368 19.6206 21.5808 20.2756L22.4192 24.1868Z" fill="#0099FF" mask="url(#path-5-inside-2)"/>
</svg>
