<svg width="22" height="30" viewBox="0 0 22 30" fill="none" xmlns="http://www.w3.org/2000/svg">
<path d="M4 5C4 4.44772 4.44772 4 5 4H17C17.5523 4 18 4.44772 18 5C18 5.55228 17.5523 6 17 6H5C4.44772 6 4 5.55228 4 5Z" fill="white"/>
<path d="M5 8C4.44772 8 4 8.44771 4 9C4 9.55229 4.44772 10 5 10H17C17.5523 10 18 9.55229 18 9C18 8.44771 17.5523 8 17 8H5Z" fill="white"/>
<path d="M4 13C4 12.4477 4.44772 12 5 12H17C17.5523 12 18 12.4477 18 13C18 13.5523 17.5523 14 17 14H5C4.44772 14 4 13.5523 4 13Z" fill="white"/>
<path d="M5 16C4.44772 16 4 16.4477 4 17C4 17.5523 4.44772 18 5 18H10C10.5523 18 11 17.5523 11 17C11 16.4477 10.5523 16 10 16H5Z" fill="white"/>
<path fill-rule="evenodd" clip-rule="evenodd" d="M22 2C22 0.895431 21.1046 0 20 0H2C0.895431 0 0 0.89543 0 2V29.2929C0 29.6834 0.316583 30 0.707107 30C0.894643 30 1.0745 29.9255 1.20711 29.7929L2.29289 28.7071C2.68342 28.3166 3.31658 28.3166 3.70711 28.7071L4.29289 29.2929C4.68342 29.6834 5.31658 29.6834 5.70711 29.2929L6.29289 28.7071C6.68342 28.3166 7.31658 28.3166 7.70711 28.7071L8.29289 29.2929C8.68342 29.6834 9.31658 29.6834 9.70711 29.2929L10.2929 28.7071C10.6834 28.3166 11.3166 28.3166 11.7071 28.7071L12.2929 29.2929C12.6834 29.6834 13.3166 29.6834 13.7071 29.2929L14.2929 28.7071C14.6834 28.3166 15.3166 28.3166 15.7071 28.7071L16.2929 29.2929C16.6834 29.6834 17.3166 29.6834 17.7071 29.2929L18.2929 28.7071C18.6834 28.3166 19.3166 28.3166 19.7071 28.7071L20.7929 29.7929C20.9255 29.9255 21.1054 30 21.2929 30C21.6834 30 22 29.6834 22 29.2929V2ZM20 2H2V26.585C3.00578 26.2303 4.16288 26.428 5 27.178C6.13667 26.1596 7.86332 26.1596 9 27.178C10.1367 26.1596 11.8633 26.1596 13 27.178C14.1367 26.1596 15.8633 26.1596 17 27.178C17.8371 26.428 18.9942 26.2303 20 26.585V2Z" fill="white"/>
</svg>
