<svg width="30" height="22" viewBox="0 0 30 22" fill="none" xmlns="http://www.w3.org/2000/svg">
<path d="M4 5C4 4.44772 4.44772 4 5 4H15C15.5523 4 16 4.44772 16 5C16 5.55228 15.5523 6 15 6H5C4.44771 6 4 5.55228 4 5Z" fill="white"/>
<path d="M5 8C4.44772 8 4 8.44771 4 9C4 9.55229 4.44772 10 5 10H11C11.5523 10 12 9.55229 12 9C12 8.44771 11.5523 8 11 8H5Z" fill="white"/>
<path fill-rule="evenodd" clip-rule="evenodd" d="M0 2C0 0.89543 0.895431 0 2 0H28C29.1046 0 30 0.895431 30 2V20C30 21.1046 29.1046 22 28 22H2C0.89543 22 0 21.1046 0 20V2ZM2 2H28V15H2L2 2ZM2 17V20H28V17H2Z" fill="white"/>
</svg>
