<svg width="24" height="32" viewBox="0 0 24 32" fill="none" xmlns="http://www.w3.org/2000/svg">
<path d="M16.0539 9.08536V5C16.0539 2.79086 14.2389 1 12 1C9.76108 1 7.94604 2.79086 7.94604 5V9.08536C8.53641 9.29129 8.95952 9.8469 8.95952 10.5C8.95952 11.3284 8.27883 12 7.4393 12C6.59976 12 5.91907 11.3284 5.91907 10.5C5.91907 9.8469 6.34218 9.29129 6.93256 9.08536V5C6.93256 2.23858 9.20126 0 12 0C14.7987 0 17.0674 2.23858 17.0674 5V9.08536C17.6578 9.29129 18.0809 9.8469 18.0809 10.5C18.0809 11.3284 17.4002 12 16.5606 12C15.7211 12 15.0404 11.3284 15.0404 10.5C15.0404 9.8469 15.4635 9.29129 16.0539 9.08536Z" fill="#262626"/>
<path d="M15.0404 6H8.95952V7H15.0404V6Z" fill="#262626"/>
<path d="M18.0809 7H20.2578C20.7874 7 21.2277 7.40231 21.2683 7.9233L22.9834 29.9233C23.0287 30.5041 22.5633 31 21.9729 31H2.02708C1.43672 31 0.971309 30.5041 1.01659 29.9233L2.73171 7.92331C2.77233 7.40231 3.21263 7 3.74221 7H5.91907V6H3.74221C2.68305 6 1.80245 6.80461 1.72121 7.84661L0.00609072 29.8466C-0.0844669 31.0082 0.846357 32 2.02708 32H21.9729C23.1536 32 24.0845 31.0082 23.9939 29.8466L22.2788 7.84661C22.1975 6.80461 21.317 6 20.2578 6H18.0809V7Z" fill="#262626"/>
</svg>
