<svg width="22" height="15" viewBox="0 0 22 15" fill="none" xmlns="http://www.w3.org/2000/svg">
<path d="M0.293081 6.30949C0.683855 5.91897 1.31743 5.91897 1.7082 6.30949L8.69126 13.2881C9.08204 13.6786 9.08204 14.3118 8.69126 14.7023C8.30049 15.0928 7.66692 15.0928 7.27614 14.7023L0.293081 7.72371C-0.0976935 7.33318 -0.0976939 6.70002 0.293081 6.30949Z" fill="#00D7BD"/>
<path d="M21.7069 0.292893C21.3161 -0.0976311 20.6826 -0.0976311 20.2918 0.292893L7.28831 13.288C6.89754 13.6786 6.89754 14.3117 7.28831 14.7023C7.67909 15.0928 8.31266 15.0928 8.70343 14.7023L21.7069 1.70711C22.0977 1.31658 22.0977 0.683417 21.7069 0.292893Z" fill="#00D7BD"/>
</svg>
