<svg width="26" height="26" viewBox="0 0 26 26" fill="none" xmlns="http://www.w3.org/2000/svg">
<path d="M12 5C12 4.44771 12.4477 4 13 4C13.5523 4 14 4.44772 14 5V11.5859L15.8285 9.7574C16.2191 9.36688 16.8522 9.36688 17.2428 9.7574C17.6333 10.1479 17.6333 10.7811 17.2428 11.1716L13.7072 14.7071C13.5855 14.8289 13.4402 14.9126 13.2861 14.9585C13.2297 14.9753 13.1713 14.9872 13.1112 14.9939C13.0475 15.001 12.9833 15.0019 12.9195 14.9968C12.81 14.9881 12.7055 14.9617 12.6088 14.9206C12.5212 14.8834 12.4378 14.8331 12.3616 14.7697C12.3069 14.7244 12.2572 14.6733 12.2133 14.6174C12.207 14.6094 12.2008 14.6013 12.1948 14.5931C12.1723 14.5626 12.1515 14.5308 12.1325 14.4978C12.1285 14.4909 12.1246 14.4839 12.1208 14.4769C12.0438 14.3352 12 14.1727 12 14V5Z" fill="white"/>
<path fill-rule="evenodd" clip-rule="evenodd" d="M13 26C20.1797 26 26 20.1797 26 13C26 5.8203 20.1797 0 13 0C5.8203 0 0 5.8203 0 13C0 20.1797 5.8203 26 13 26ZM13 24C19.0751 24 24 19.0751 24 13C24 6.92487 19.0751 2 13 2C6.92487 2 2 6.92487 2 13C2 19.0751 6.92487 24 13 24Z" fill="white"/>
</svg>
