<svg width="16" height="16" viewBox="0 0 16 16" fill="none" xmlns="http://www.w3.org/2000/svg">
<path d="M1.70819 0.293065C1.31744 -0.0976884 0.68386 -0.0976884 0.293109 0.293065C-0.097703 0.68388 -0.097703 1.3174 0.293109 1.70822L6.58489 8.00004L0.29317 14.2918C-0.0975809 14.6825 -0.0975809 15.3161 0.29317 15.7069C0.683921 16.0977 1.3175 16.0977 1.70825 15.7069L7.99997 9.41513L14.2917 15.7069C14.6825 16.0977 15.3161 16.0977 15.7068 15.7069C16.0976 15.3161 16.0976 14.6825 15.7068 14.2918L9.41511 8.00004L15.7069 1.70822C16.0977 1.3174 16.0977 0.68388 15.7069 0.293065C15.3161 -0.0976884 14.6826 -0.0976884 14.2918 0.293065L7.99997 6.58488L1.70819 0.293065Z" fill="#FF1A66"/>
</svg>
