<svg width="12" height="12" viewBox="0 0 12 12" fill="none" xmlns="http://www.w3.org/2000/svg">
<path d="M11.7037 11.7037C11.3086 12.0988 10.6681 12.0988 10.273 11.7037L0.296307 1.72699C-0.0987664 1.33192 -0.0987673 0.691379 0.296307 0.296305C0.691381 -0.0987691 1.33192 -0.0987691 1.727 0.296305L11.7037 10.273C12.0988 10.6681 12.0988 11.3086 11.7037 11.7037Z" fill="#1A1A1A"/>
<path d="M0.296306 11.7037C-0.0987677 11.3086 -0.0987677 10.6681 0.296306 10.273L10.273 0.296307C10.6681 -0.0987671 11.3086 -0.098768 11.7037 0.296306C12.0988 0.69138 12.0988 1.33192 11.7037 1.72699L1.727 11.7037C1.33192 12.0988 0.69138 12.0988 0.296306 11.7037Z" fill="#1A1A1A"/>
</svg>
