<svg width="22" height="30" viewBox="0 0 22 30" fill="none" xmlns="http://www.w3.org/2000/svg">
<path d="M4 9C4 8.44771 4.44772 8 5 8H9C9.55228 8 10 8.44771 10 9C10 9.55229 9.55228 10 9 10H5C4.44772 10 4 9.55229 4 9Z" fill="white"/>
<path d="M5 12C4.44772 12 4 12.4477 4 13C4 13.5523 4.44772 14 5 14H17C17.5523 14 18 13.5523 18 13C18 12.4477 17.5523 12 17 12H5Z" fill="white"/>
<path d="M4 17C4 16.4477 4.44772 16 5 16H17C17.5523 16 18 16.4477 18 17C18 17.5523 17.5523 18 17 18H5C4.44772 18 4 17.5523 4 17Z" fill="white"/>
<path d="M5 20C4.44772 20 4 20.4477 4 21C4 21.5523 4.44772 22 5 22H17C17.5523 22 18 21.5523 18 21C18 20.4477 17.5523 20 17 20H5Z" fill="white"/>
<path fill-rule="evenodd" clip-rule="evenodd" d="M0 2C0 0.89543 0.895431 0 2 0H13.1716C13.702 0 14.2107 0.210714 14.5858 0.585786L21.4142 7.41421C21.7893 7.78929 22 8.29799 22 8.82843V28C22 29.1046 21.1046 30 20 30H2C0.89543 30 0 29.1046 0 28V2ZM12 2H2L2 28H20V10H14C12.8954 10 12 9.10457 12 8V2ZM19.1716 8L14 2.82843L14 8H19.1716Z" fill="white"/>
</svg>
