<svg width="129" height="30" viewBox="0 0 129 30" fill="none" xmlns="http://www.w3.org/2000/svg">
<path d="M8.03428 8.16035L18.1631 29.7036C18.2574 29.9043 18.0115 30.0923 17.8401 29.9505L0.150268 15.3184C-0.0500897 15.1527 -0.0500893 14.8473 0.150269 14.6816L8.03428 8.16035Z" fill="white"/>
<path d="M18.1631 0.296356C18.2574 0.0956882 18.0115 -0.0922798 17.8402 0.0494841L0.150269 14.6816C-0.0500893 14.8473 -0.0500897 15.1527 0.150268 15.3184L8.03428 21.8397L18.1631 0.296356Z" fill="white"/>
<path d="M11.25 24.465L0.15027 15.2839C-0.0500881 15.1182 -0.050088 14.8127 0.15027 14.647L11.25 5.46594L22.3497 14.647C22.5501 14.8127 22.5501 15.1182 22.3497 15.2839L11.25 24.465Z" fill="white"/>
<path opacity="0.5" d="M8.03428 8.1604L18.1631 29.7037C18.2574 29.9044 18.0115 30.0923 17.8402 29.9506L0.150268 15.3185C-0.0500897 15.1528 -0.0500893 14.8473 0.150269 14.6816L8.03428 8.1604Z" fill="#7B78FF"/>
<path opacity="0.5" d="M18.1631 0.296356C18.2574 0.0956883 18.0115 -0.0922798 17.8401 0.0494841L0.150268 14.6816C-0.0500897 14.8473 -0.0500893 15.1527 0.150269 15.3184L8.03428 21.8397L18.1631 0.296356Z" fill="#00D7BD"/>
<path opacity="0.5" d="M11.25 24.4649L0.150268 15.2838C-0.0500896 15.1181 -0.0500894 14.8126 0.150269 14.6469L11.25 5.46582L22.3497 14.6469C22.5501 14.8126 22.5501 15.1181 22.3497 15.2838L11.25 24.4649Z" fill="#0099FF"/>
<path d="M33.3394 10.8101V14.0782H35.8645V15.7542H33.3394V19.1899H36.5167V20.8659H31.5V9.13408H36.5167V10.8101H33.3394Z" fill="white"/>
<path d="M44.7467 9.13408L46.6196 20.8659H44.7634L44.4457 18.7374H42.1882L41.8705 20.8659H40.1815L42.0544 9.13408H44.7467ZM43.3086 11.2123L42.4223 17.1453H44.1949L43.3086 11.2123Z" fill="white"/>
<path d="M50.2521 11.9497C50.2521 11 50.4806 10.2737 50.9377 9.77095C51.3947 9.25698 52.0692 9 52.961 9C53.8529 9 54.5274 9.25698 54.9844 9.77095C55.4415 10.2737 55.67 11 55.67 11.9497V12.3184H53.9309V11.8324C53.9309 11.0615 53.6244 10.676 53.0112 10.676C52.3981 10.676 52.0915 11.0615 52.0915 11.8324C52.0915 12.1564 52.1584 12.4637 52.2922 12.7542C52.4259 13.0447 52.5987 13.3073 52.8105 13.5419C53.0224 13.7765 53.2565 14.0112 53.5129 14.2458C53.7693 14.4693 54.0201 14.7095 54.2654 14.9665C54.5218 15.2123 54.7559 15.4804 54.9677 15.771C55.1795 16.0503 55.3523 16.3855 55.4861 16.7765C55.6199 17.1676 55.6868 17.5922 55.6868 18.0503C55.6868 19 55.4526 19.7318 54.9844 20.2458C54.5162 20.7486 53.8362 21 52.9443 21C52.0525 21 51.3724 20.7486 50.9042 20.2458C50.436 19.7318 50.2019 19 50.2019 18.0503V17.3296H51.941V18.1676C51.941 18.9274 52.2587 19.3073 52.8942 19.3073C53.5296 19.3073 53.8473 18.9274 53.8473 18.1676C53.8473 17.7318 53.7247 17.324 53.4794 16.9441C53.2342 16.5531 52.9332 16.2011 52.5764 15.8883C52.2308 15.5754 51.8797 15.2514 51.5229 14.9162C51.1662 14.5698 50.8652 14.1453 50.6199 13.6425C50.3747 13.1285 50.2521 12.5642 50.2521 11.9497Z" fill="white"/>
<path d="M61.3587 20.8659V16.9777L59.0343 9.13408H60.9574L62.362 14.4804L63.7667 9.13408H65.5225L63.1981 16.9777V20.8659H61.3587Z" fill="white"/>
<path d="M68.928 11.9497C68.928 11 69.1565 10.2737 69.6136 9.77095C70.0706 9.25698 70.7451 9 71.6369 9C72.5288 9 73.2032 9.25698 73.6603 9.77095C74.1174 10.2737 74.3459 11 74.3459 11.9497V12.3184H72.6068V11.8324C72.6068 11.0615 72.3002 10.676 71.6871 10.676C71.074 10.676 70.7674 11.0615 70.7674 11.8324C70.7674 12.1564 70.8343 12.4637 70.9681 12.7542C71.1018 13.0447 71.2746 13.3073 71.4864 13.5419C71.6983 13.7765 71.9324 14.0112 72.1888 14.2458C72.4452 14.4693 72.696 14.7095 72.9413 14.9665C73.1977 15.2123 73.4318 15.4804 73.6436 15.771C73.8554 16.0503 74.0282 16.3855 74.162 16.7765C74.2958 17.1676 74.3626 17.5922 74.3626 18.0503C74.3626 19 74.1285 19.7318 73.6603 20.2458C73.1921 20.7486 72.5121 21 71.6202 21C70.7284 21 70.0483 20.7486 69.5801 20.2458C69.1119 19.7318 68.8778 19 68.8778 18.0503V17.3296H70.6169V18.1676C70.6169 18.9274 70.9346 19.3073 71.57 19.3073C72.2055 19.3073 72.5232 18.9274 72.5232 18.1676C72.5232 17.7318 72.4006 17.324 72.1553 16.9441C71.9101 16.5531 71.6091 16.2011 71.2523 15.8883C70.9067 15.5754 70.5556 15.2514 70.1988 14.9162C69.8421 14.5698 69.5411 14.1453 69.2958 13.6425C69.0506 13.1285 68.928 12.5642 68.928 11.9497Z" fill="white"/>
<path d="M77.8914 10.8101V9.13408H83.5769V10.8101H81.6539V20.8659H79.8145V10.8101H77.8914Z" fill="white"/>
<path d="M89.2365 10.8101V14.0782H91.7615V15.7542H89.2365V19.1899H92.4137V20.8659H87.397V9.13408H92.4137V10.8101H89.2365Z" fill="white"/>
<path d="M100.644 9.13408L102.517 20.8659H100.66L100.343 18.7374H98.0852L97.7675 20.8659H96.0786L97.9514 9.13408H100.644ZM99.2056 11.2123L98.3193 17.1453H100.092L99.2056 11.2123Z" fill="white"/>
<path d="M106.383 20.8659V9.13408H108.223V19.1899H111.249V20.8659H106.383Z" fill="white"/>
<path d="M113.692 10.8101V9.13408H119.377V10.8101H117.454V20.8659H115.615V10.8101H113.692Z" fill="white"/>
<path d="M125.037 15.838V20.8659H123.197V9.13408H125.037V14.162H127.127V9.13408H129V20.8659H127.127V15.838H125.037Z" fill="white"/>
</svg>
