<svg width="22" height="30" viewBox="0 0 22 30" fill="none" xmlns="http://www.w3.org/2000/svg">
<path d="M15 12C14.4477 12 14 11.5523 14 11V5C14 3.34314 12.6569 2 11 2C9.34315 2 8.00001 3.34314 8.00001 5V11C8.00001 11.5523 7.55232 12 7.00001 12C6.44771 12 6.00001 11.5523 6.00001 11V5C6.00001 2.23859 8.2386 0 11 0C13.7614 0 16 2.23859 16 5V11C16 11.5523 15.5523 12 15 12Z" fill="white"/>
<path d="M17.3396 8C17.868 8 18.3082 8.39865 18.3521 8.91696L19.8761 26.917C19.9255 27.5 19.458 28 18.8636 28H3.13643C2.54201 28 2.07454 27.5 2.12392 26.917L3.64796 8.91696C3.69185 8.39865 4.13203 8 4.66041 8H4.90401V6H3.7256C2.66878 6 1.78828 6.79733 1.70058 7.83392L0.0071549 27.8339C-0.091539 28.9999 0.843398 30 2.03218 30H19.9678C21.1566 30 22.0916 28.9999 21.9929 27.8339L20.2995 7.83392C20.2117 6.79733 19.3313 6 18.2744 6H17.0963V8H17.3396Z" fill="white"/>
<path d="M8.96809 6H13.0322V8H8.96809V6Z" fill="white"/>
</svg>
