<svg width="30" height="30" viewBox="0 0 30 30" fill="none" xmlns="http://www.w3.org/2000/svg">
<g clip-path="url(#clip0)">
<path fill-rule="evenodd" clip-rule="evenodd" d="M15.4225 6.20682L16.554 5.07358C17.1326 4.49416 17.1326 3.55472 16.554 2.9753C15.9755 2.39588 15.0375 2.39588 14.459 2.9753L11.7772 5.66122L2.24449 4.23447C1.40753 4.10921 0.58509 4.53741 0.20663 5.2955C-0.230158 6.17042 0.0446677 7.23396 0.850402 7.78682L10.2196 14.2155L7.82467 16.6141L7.11215 18.0889L2.4323 17.4867C1.42986 17.3577 0.496754 18.0219 0.288817 19.0125C0.129204 19.7729 0.437735 20.5553 1.07303 21.0013L4.53203 23.4294L3.20542 26.1753C3.00154 26.5973 3.44365 27.0401 3.86501 26.8359L6.60872 25.5062L9.04017 28.9807C9.48544 29.617 10.2667 29.926 11.0259 29.7661C12.0149 29.5578 12.6781 28.6233 12.5493 27.6193L11.9464 22.9195L13.4115 22.2095L15.7977 19.8196L22.179 29.1483C22.731 29.9553 23.7929 30.2305 24.6665 29.7931C25.4234 29.414 25.851 28.5903 25.7259 27.7521L24.3133 18.2851L27.0293 15.565C27.6078 14.9855 27.6078 14.0461 27.0293 13.4667C26.4507 12.8873 25.5128 12.8873 24.9342 13.4667L23.7686 14.6341L23.4054 12.2002L27.3785 8.22099C28.7752 6.82214 31.359 3.11519 29.1243 0.877027C26.8896 -1.36113 23.1884 1.22674 21.7917 2.62559L17.8528 6.57055L15.4225 6.20682ZM11.5857 12.7549L16.0349 8.29871L2.03822 6.20384L11.5857 12.7549ZM10.0715 23.8281L8.40993 24.6333L10.571 27.7213L10.0715 23.8281ZM2.33043 19.4681L6.20494 19.9667L5.40359 21.6254L2.33043 19.4681ZM25.4192 7.38561C25.4117 7.29283 25.4004 7.19255 25.3837 7.08697C25.2949 6.52324 25.0732 5.91215 24.5851 5.42329C24.097 4.93444 23.4868 4.71238 22.9239 4.62337C22.8185 4.6067 22.7184 4.59536 22.6258 4.58791L9.45734 17.7766L8.14794 20.4869L10.6181 18.013C11.0038 17.6267 11.6291 17.6267 12.0148 18.013C12.4005 18.3992 12.4005 19.0255 12.0148 19.4118L9.54463 21.8857L12.2507 20.5743L25.4192 7.38561ZM24.4392 3.00325C24.9625 3.21764 25.4988 3.54077 25.9818 4.02444C26.4647 4.50811 26.7873 5.04531 27.0014 5.5694C27.3019 5.12671 27.5812 4.63431 27.7744 4.14111C28.1959 3.06544 28.0255 2.57426 27.7276 2.27588C27.4297 1.9775 26.9393 1.8069 25.8653 2.22899C25.3728 2.42253 24.8812 2.70225 24.4392 3.00325ZM23.7595 27.9586L21.6679 13.9404L17.2186 18.3965L23.7595 27.9586Z" fill="#262626"/>
</g>
<defs>
<clipPath id="clip0">
<rect width="30" height="30" fill="white"/>
</clipPath>
</defs>
</svg>
