<svg width="30" height="30" viewBox="0 0 30 30" fill="none" xmlns="http://www.w3.org/2000/svg">
<g clip-path="url(#clip0)">
<path d="M8 13C8 12.4477 8.44771 12 9 12H15C15.5523 12 16 12.4477 16 13C16 13.5523 15.5523 14 15 14H9C8.44771 14 8 13.5523 8 13Z" fill="#0099FF"/>
<path fill-rule="evenodd" clip-rule="evenodd" d="M26.5681 10.2724L27.5108 14.0433C28.9244 14.2858 30 15.5173 30 17V20C30 21.3121 29.1576 22.4275 27.9842 22.8348C27.8156 24.6108 26.3201 26 24.5 26C22.7368 26 21.2781 24.6961 21.0354 23H10.9646C10.7219 24.6961 9.26324 26 7.5 26C5.73676 26 4.27806 24.6961 4.03544 23H2C0.895431 23 0 22.1046 0 21V6C0 4.89543 0.895431 4 2 4H18C19.1046 4 20 4.89543 20 6V8H23.6577C25.0343 8 26.2342 8.93689 26.5681 10.2724ZM2 6H18V8H12C11.4477 8 11 8.44772 11 9C11 9.55228 11.4477 10 12 10H18V16H2V6ZM2 18L2 21H4.33682C4.89855 19.8175 6.1038 19 7.5 19C8.8962 19 10.1015 19.8175 10.6632 21H18V18H2ZM25.4384 14H20V10H23.6577C24.1165 10 24.5165 10.3123 24.6278 10.7575L25.4384 14ZM20 16H27C27.5523 16 28 16.4477 28 17V20C28 20.3398 27.8306 20.64 27.5716 20.8207C26.9771 19.7357 25.8245 19 24.5 19C23.1038 19 21.8985 19.8175 21.3368 21H20V16ZM9 22.5C9 23.3284 8.32843 24 7.5 24C6.67157 24 6 23.3284 6 22.5C6 21.6716 6.67157 21 7.5 21C8.32843 21 9 21.6716 9 22.5ZM26 22.5C26 23.3284 25.3284 24 24.5 24C23.6716 24 23 23.3284 23 22.5C23 21.6716 23.6716 21 24.5 21C25.3284 21 26 21.6716 26 22.5Z" fill="#0099FF"/>
<g clip-path="url(#clip1)">
<path d="M164.227 -210.246C147.066 -196.961 142.391 -190.113 81.5312 -129.883L45.0469 -135.824L61.7891 -152.566C73.5156 -164.293 73.5195 -183.266 61.7891 -194.992C50.0664 -206.715 31.082 -206.719 19.3594 -194.992L-27.9297 -147.703L-193.312 -174.629C-204 -176.363 -214.934 -172.828 -222.582 -165.18C-237.289 -150.473 -235.293 -126.141 -218.516 -114L-53.707 5.35158L-84.5625 36.2109C-95.1367 46.7852 -106.266 61.3281 -117.703 79.4883L-194.562 56.8867C-205.906 53.5547 -218.156 56.6758 -226.535 65.0391C-240.801 79.3047 -238.645 102.996 -222.074 114.473L-159.066 158.09C-170.035 182.297 -176.703 199.801 -177.012 200.609C-178.41 204.289 -177.516 208.449 -174.734 211.23C-171.938 214.027 -167.773 214.898 -164.113 213.508C-163.305 213.203 -145.801 206.531 -121.594 195.562L-77.9727 258.574C-66.4766 275.172 -42.7852 277.273 -28.5352 263.023C-20.1758 254.652 -17.0547 242.402 -20.3906 231.059L-42.9883 154.203C-24.8164 142.758 -10.2812 131.629 0.289062 121.062L31.1484 90.2031L150.496 255.012C162.656 271.816 186.988 273.77 201.68 259.078C209.324 251.434 212.859 240.492 211.129 229.801L184.203 64.4297L231.488 17.1445C243.215 5.41797 243.215 -13.5664 231.488 -25.289C219.766 -37.0156 200.793 -37.0156 189.066 -25.289L172.32 -8.54686L166.383 -45.0312C226.676 -105.953 233.414 -110.52 246.707 -127.68C246.723 -127.699 246.742 -127.723 246.758 -127.746C277.602 -167.719 284.82 -208.09 264.707 -228.211C244.59 -248.316 204.215 -241.105 164.227 -210.246ZM33.5 -180.848C37.4062 -184.758 43.7383 -184.758 47.6484 -180.848C51.5586 -176.937 51.5547 -170.621 47.6484 -166.711L20.7188 -139.785L-3.60547 -143.746L33.5 -180.848ZM-206.789 -130.203C-213.633 -135.152 -214.418 -145.062 -208.437 -151.039C-205.324 -154.156 -200.863 -155.598 -196.52 -154.891L64.1055 -112.457L-39.3828 -8.97264L-206.789 -130.203ZM-212.395 79.1875C-209.199 75.9961 -204.527 74.8008 -200.203 76.0742L-128.316 97.2148C-135.668 110.09 -143.086 124.312 -150.484 139.707L-210.687 98.0312C-217.004 93.6562 -217.832 84.6211 -212.395 79.1875ZM-42.6836 248.891C-48.0742 254.281 -57.1211 253.555 -61.5312 247.188L-103.207 186.98C-87.8008 179.574 -73.5742 172.152 -60.7148 164.816L-39.5781 236.699C-38.3047 241.027 -39.4961 245.699 -42.6836 248.891ZM203.211 -11.1484C207.117 -15.0547 213.438 -15.0586 217.348 -11.1484C221.258 -7.23827 221.254 -0.910141 217.348 3.00002L180.242 40.1016L176.285 15.7774L203.211 -11.1484ZM191.387 233.008C192.094 237.363 190.652 241.824 187.539 244.938C181.59 250.887 171.672 250.16 166.699 243.285L45.4688 75.8828L148.957 -27.6055L191.387 233.008ZM-13.8516 106.918C-24.8555 117.926 -40.9609 129.809 -61.7188 142.242C-88.7031 158.402 -120.637 173.707 -149.441 185.941C-136.875 156.355 -121.281 123.906 -104.773 96.6133C-92.6992 76.6367 -81.1406 61.0703 -70.418 50.3516C173.855 -193.336 159.383 -180.766 174.207 -192.621C190.652 -193.672 205.129 -188.789 215.207 -178.711C225.285 -168.633 230.172 -154.152 229.121 -137.711C217.238 -122.852 229.66 -137.184 -13.8516 106.918ZM246.234 -163.988C243.039 -175.012 237.363 -184.84 229.352 -192.852C221.34 -200.859 211.512 -206.539 200.492 -209.734C214.965 -217.074 239.336 -225.293 250.566 -214.07C259.434 -205.199 257.23 -185.672 246.234 -163.988Z" fill="black"/>
<path d="M61.7891 -39.4297L33.5078 -11.1523C29.6016 -7.24609 29.6016 -0.914062 33.5078 2.99219C37.4141 6.89844 43.7422 6.89453 47.6523 2.99219L75.9297 -25.2891C79.8359 -29.1914 79.8359 -35.5234 75.9297 -39.4297C72.0234 -43.3359 65.6953 -43.3359 61.7891 -39.4297Z" fill="black"/>
</g>
</g>
<defs>
<clipPath id="clip0">
<rect width="30" height="30" fill="white"/>
</clipPath>
<clipPath id="clip1">
<rect width="511.999" height="511" fill="white" transform="translate(-236 -240)"/>
</clipPath>
</defs>
</svg>
