<?xml version="1.0" encoding="utf-8"?>
<!-- Generator: Adobe Illustrator 21.1.0, SVG Export Plug-In . SVG Version: 6.00 Build 0)  -->
<svg   viewBox="0 0 172 40" fill="none" xmlns="http://www.w3.org/2000/svg">
<path opacity="0.5" d="M10.7124 10.8805L24.2174 39.6049C24.3432 39.8724 24.0154 40.123 23.7869 39.934L0.200358 20.4246C-0.0667863 20.2036 -0.0667857 19.7964 0.200358 19.5754L10.7124 10.8805Z" fill="#7B78FF"/>
<path opacity="0.5" d="M24.2174 0.395141C24.3432 0.127584 24.0154 -0.12304 23.7869 0.0659788L0.200362 19.5754C-0.0667825 19.7964 -0.0667819 20.2036 0.200362 20.4246L10.7124 29.1195L24.2174 0.395141Z" fill="#00D7BD"/>
<path opacity="0.5" d="M15 32.62L0.20036 20.3785C-0.0667842 20.1576 -0.066784 19.7503 0.20036 19.5293L15 7.28792L29.7996 19.5293C30.0668 19.7503 30.0668 20.1576 29.7996 20.3785L15 32.62Z" fill="#0099FF"/>
<path d="M44.4526 14.4134V18.7709H47.8193V21.0056H44.4526V25.5866H48.6889V27.8212H42V12.1788H48.6889V14.4134H44.4526Z" fill="#1F282E"/>
<path d="M59.6622 12.1788L62.1594 27.8212H59.6845L59.2609 24.9832H56.2509L55.8273 27.8212H53.5754L56.0726 12.1788H59.6622ZM57.7448 14.9497L56.5631 22.8603H58.9265L57.7448 14.9497Z" fill="#1F282E"/>
<path d="M67.0027 15.933C67.0027 14.6667 67.3074 13.6983 67.9169 13.0279C68.5263 12.3426 69.4256 12 70.6147 12C71.8038 12 72.7031 12.3426 73.3126 13.0279C73.922 13.6983 74.2267 14.6667 74.2267 15.933V16.4246H71.9079V15.7765C71.9079 14.7486 71.4991 14.2346 70.6816 14.2346C69.8641 14.2346 69.4553 14.7486 69.4553 15.7765C69.4553 16.2086 69.5445 16.6182 69.7229 17.0056C69.9012 17.3929 70.1316 17.743 70.4141 18.0559C70.6965 18.3687 71.0086 18.6816 71.3505 18.9944C71.6924 19.2924 72.0268 19.6127 72.3538 19.9553C72.6957 20.2831 73.0078 20.6406 73.2903 21.0279C73.5727 21.4004 73.8031 21.8473 73.9814 22.3687C74.1598 22.8901 74.249 23.4562 74.249 24.067C74.249 25.3333 73.9368 26.3091 73.3126 26.9944C72.6883 27.6648 71.7815 28 70.5924 28C69.4033 28 68.4966 27.6648 67.8723 26.9944C67.248 26.3091 66.9358 25.3333 66.9358 24.067V23.1061H69.2546V24.2235C69.2546 25.2365 69.6783 25.743 70.5255 25.743C71.3728 25.743 71.7964 25.2365 71.7964 24.2235C71.7964 23.6425 71.6329 23.0987 71.3059 22.5922C70.9789 22.0708 70.5776 21.6015 70.1019 21.1844C69.6411 20.7672 69.1729 20.3352 68.6972 19.8883C68.2216 19.4264 67.8203 18.8603 67.4933 18.1899C67.1662 17.5047 67.0027 16.7523 67.0027 15.933Z" fill="#1F282E"/>
<path d="M81.8116 27.8212V22.6369L78.7124 12.1788H81.2765L83.1494 19.3073L85.0222 12.1788H87.3633L84.2642 22.6369V27.8212H81.8116Z" fill="#1F282E"/>
<path d="M91.9039 15.933C91.9039 14.6667 92.2086 13.6983 92.8181 13.0279C93.4275 12.3426 94.3268 12 95.5159 12C96.705 12 97.6043 12.3426 98.2137 13.0279C98.8232 13.6983 99.1279 14.6667 99.1279 15.933V16.4246H96.8091V15.7765C96.8091 14.7486 96.4003 14.2346 95.5828 14.2346C94.7653 14.2346 94.3565 14.7486 94.3565 15.7765C94.3565 16.2086 94.4457 16.6182 94.6241 17.0056C94.8024 17.3929 95.0328 17.743 95.3152 18.0559C95.5977 18.3687 95.9098 18.6816 96.2517 18.9944C96.5935 19.2924 96.928 19.6127 97.255 19.9553C97.5969 20.2831 97.909 20.6406 98.1914 21.0279C98.4739 21.4004 98.7043 21.8473 98.8826 22.3687C99.061 22.8901 99.1502 23.4562 99.1502 24.067C99.1502 25.3333 98.838 26.3091 98.2137 26.9944C97.5894 27.6648 96.6827 28 95.4936 28C94.3045 28 93.3978 27.6648 92.7735 26.9944C92.1492 26.3091 91.837 25.3333 91.837 24.067V23.1061H94.1558V24.2235C94.1558 25.2365 94.5795 25.743 95.4267 25.743C96.274 25.743 96.6976 25.2365 96.6976 24.2235C96.6976 23.6425 96.5341 23.0987 96.2071 22.5922C95.8801 22.0708 95.4787 21.6015 95.0031 21.1844C94.5423 20.7672 94.0741 20.3352 93.5984 19.8883C93.1228 19.4264 92.7214 18.8603 92.3944 18.1899C92.0674 17.5047 91.9039 16.7523 91.9039 15.933Z" fill="#1F282E"/>
<path d="M103.855 14.4134V12.1788H111.436V14.4134H108.872V27.8212H106.419V14.4134H103.855Z" fill="#1F282E"/>
<path d="M118.982 14.4134V18.7709H122.349V21.0056H118.982V25.5866H123.218V27.8212H116.529V12.1788H123.218V14.4134H118.982Z" fill="#1F282E"/>
<path d="M134.192 12.1788L136.689 27.8212H134.214L133.79 24.9832H130.78L130.357 27.8212H128.105L130.602 12.1788H134.192ZM132.274 14.9497L131.092 22.8603H133.456L132.274 14.9497Z" fill="#1F282E"/>
<path d="M141.844 27.8212V12.1788H144.297V25.5866H148.332V27.8212H141.844Z" fill="#1F282E"/>
<path d="M151.589 14.4134V12.1788H159.17V14.4134H156.606V27.8212H154.153V14.4134H151.589Z" fill="#1F282E"/>
<path d="M166.716 21.1173V27.8212H164.263V12.1788H166.716V18.8827H169.503V12.1788H172V27.8212H169.503V21.1173H166.716Z" fill="#1F282E"/>
</svg>
