<svg width="24" height="24" viewBox="0 0 24 24" fill="none" xmlns="http://www.w3.org/2000/svg">
<path fill-rule="evenodd" clip-rule="evenodd" d="M12 19C14.7614 19 17 16.7614 17 14C17 11.2386 14.7614 9 12 9C9.23858 9 7 11.2386 7 14C7 16.7614 9.23858 19 12 19ZM12 17C13.6569 17 15 15.6569 15 14C15 12.3431 13.6569 11 12 11C10.3431 11 9 12.3431 9 14C9 15.6569 10.3431 17 12 17Z" fill="#0099FF"/>
<path d="M4 11C4.55228 11 5 10.5523 5 10C5 9.44772 4.55228 9 4 9C3.44772 9 3 9.44772 3 10C3 10.5523 3.44772 11 4 11Z" fill="#0099FF"/>
<path fill-rule="evenodd" clip-rule="evenodd" d="M6 6V4C6 2.89543 6.89543 2 8 2H16C17.1046 2 18 2.89543 18 4V6H20C22.2091 6 24 7.79086 24 10V18C24 20.2091 22.2091 22 20 22H4C1.79086 22 0 20.2091 0 18V10C0 7.79086 1.79086 6 4 6H6ZM8 4H16V6H8V4ZM4 8C2.89543 8 2 8.89543 2 10V18C2 19.1046 2.89543 20 4 20H20C21.1046 20 22 19.1046 22 18V10C22 8.89543 21.1046 8 20 8H4Z" fill="#0099FF"/>
</svg>
