<svg width="50" height="40" viewBox="0 0 50 40" fill="none" xmlns="http://www.w3.org/2000/svg">
<path opacity="0.15" d="M50 30.3846C50 33.3333 49.0421 35.7051 47.1264 37.5C45.2107 39.1667 42.7842 40 39.8467 40C36.3985 40 33.5249 38.8462 31.2261 36.5385C29.0549 34.2308 27.9693 30.8333 27.9693 26.3462C27.9693 22.1154 28.5441 18.5256 29.6935 15.5769C30.9706 12.5 32.4393 9.9359 34.0996 7.88462C35.8876 5.70513 37.6756 3.97436 39.4636 2.69231C41.3793 1.41026 43.0396 0.512822 44.4444 0L49.2337 6.73077C46.424 8.14103 44.1252 10.0641 42.3372 12.5C40.6769 14.8077 39.8467 17.7564 39.8467 21.3462C40.3576 21.218 41.06 21.1538 41.954 21.1538C44.5083 21.1538 46.4879 22.0513 47.8927 23.8462C49.2976 25.641 50 27.8205 50 30.3846ZM22.0306 30.3846C22.0306 33.3333 21.0728 35.7051 19.1571 37.5C17.2414 39.1667 14.8148 40 11.8774 40C8.42912 40 5.55555 38.8462 3.2567 36.5385C1.08557 34.2308 0 30.8333 0 26.3462C0 22.1154 0.574713 18.5256 1.72414 15.5769C3.00128 12.5 4.46999 9.9359 6.13027 7.88462C7.91826 5.70513 9.70626 3.97436 11.4943 2.69231C13.41 1.41026 15.0702 0.512822 16.4751 0L21.2644 6.73077C18.4547 8.14103 16.1558 10.0641 14.3678 12.5C12.7075 14.8077 11.8774 17.7564 11.8774 21.3462C12.3883 21.218 13.0907 21.1538 13.9847 21.1538C16.539 21.1538 18.5185 22.0513 19.9234 23.8462C21.3282 25.641 22.0306 27.8205 22.0306 30.3846Z" fill="#8F9DB3"/>
</svg>
