<svg width="46" height="30" viewBox="0 0 46 30" fill="none" xmlns="http://www.w3.org/2000/svg">
<mask id="path-1-inside-1" fill="white">
<path fill-rule="evenodd" clip-rule="evenodd" d="M42 2H4C2.89543 2 2 2.89543 2 4V26C2 27.1046 2.89543 28 4 28H42C43.1046 28 44 27.1046 44 26V4C44 2.89543 43.1046 2 42 2ZM4 0C1.79086 0 0 1.79086 0 4V26C0 28.2091 1.79086 30 4 30H42C44.2091 30 46 28.2091 46 26V4C46 1.79086 44.2091 0 42 0H4Z"/>
</mask>
<path fill-rule="evenodd" clip-rule="evenodd" d="M42 2H4C2.89543 2 2 2.89543 2 4V26C2 27.1046 2.89543 28 4 28H42C43.1046 28 44 27.1046 44 26V4C44 2.89543 43.1046 2 42 2ZM4 0C1.79086 0 0 1.79086 0 4V26C0 28.2091 1.79086 30 4 30H42C44.2091 30 46 28.2091 46 26V4C46 1.79086 44.2091 0 42 0H4Z" fill="white"/>
<path d="M4 4H42V0H4V4ZM4 4V4V0C1.79086 0 0 1.79086 0 4H4ZM4 26V4H0V26H4ZM4 26H4H0C0 28.2091 1.79086 30 4 30V26ZM42 26H4V30H42V26ZM42 26V30C44.2091 30 46 28.2091 46 26H42ZM42 4V26H46V4H42ZM42 4H46C46 1.79086 44.2091 0 42 0V4ZM2 4C2 2.89543 2.89543 2 4 2V-2C0.686292 -2 -2 0.686291 -2 4H2ZM2 26V4H-2V26H2ZM4 28C2.89543 28 2 27.1046 2 26H-2C-2 29.3137 0.68629 32 4 32V28ZM42 28H4V32H42V28ZM44 26C44 27.1046 43.1046 28 42 28V32C45.3137 32 48 29.3137 48 26H44ZM44 4V26H48V4H44ZM42 2C43.1046 2 44 2.89543 44 4H48C48 0.686292 45.3137 -2 42 -2V2ZM4 2H42V-2H4V2Z" fill="white" mask="url(#path-1-inside-1)"/>
<rect x="2" y="20" width="42" height="4" fill="white"/>
<path d="M5.17552 12.5864L5.07434 12.8631C4.98761 13.0931 4.97677 13.5027 5.04182 13.7219L5.55135 16.3453C5.5911 16.5717 5.66337 16.6687 5.73926 16.6544C5.82237 16.6328 5.81515 16.4603 5.76455 16.065L5.37789 12.5864C5.35621 12.3671 5.25864 12.3635 5.17552 12.5864Z" fill="white"/>
<path d="M6.25598 15.3463C6.26682 15.5727 6.2885 15.8458 6.21261 15.8638C6.14034 15.8781 6.09698 15.7883 6.05723 15.4972L5.89461 13.9483C5.8657 13.7255 5.90184 13.2548 5.98495 13.0895C6.06807 12.9242 6.14757 12.9673 6.1548 13.1865L6.25598 15.3463Z" fill="white"/>
<path d="M6.9498 10.1283L6.75105 14.6455C6.74743 14.8504 6.73298 15.1127 6.65709 15.0947C6.61373 15.084 6.56313 14.9654 6.55952 14.7605L6.47279 11.0519C6.46918 10.8686 6.53784 10.5632 6.63902 10.3763L6.77634 10.1211C6.87391 9.94145 6.96787 9.94504 6.9498 10.1283Z" fill="white"/>
<path d="M7.63292 11.0519L7.32575 14.4946C7.29323 14.739 7.25709 14.9869 7.18482 14.9833C7.13423 14.9833 7.09448 14.8288 7.11616 14.6024L7.24264 11.6448C7.26432 11.4328 7.40887 11.1094 7.49921 10.9477C7.59678 10.7895 7.66906 10.865 7.63292 11.0519Z" fill="white"/>
<path d="M7.75189 14.2538C7.69407 14.2466 7.69046 14.0023 7.70491 13.8369L8.18915 9.06818C8.21444 8.89209 8.34454 8.61897 8.47463 8.46445L8.52161 8.40695C8.65531 8.24883 8.75288 8.2632 8.71675 8.4357L7.89644 13.8405C7.85307 14.0741 7.82416 14.2538 7.75189 14.2538Z" fill="white"/>
<path d="M9.19745 9.2227C9.30586 9.10052 9.48293 9.1688 9.44318 9.34129L8.38075 14.1568C8.341 14.3293 8.26512 14.5952 8.18923 14.5844C8.12418 14.5808 8.1278 14.3257 8.17477 14.1208L8.93726 9.76534C8.97701 9.59285 9.08904 9.34129 9.19745 9.2227Z" fill="white"/>
<path d="M9.30597 14.1028C9.23008 14.2681 9.13251 14.5089 9.02772 14.4622C8.95183 14.4299 9.10722 14.0561 9.10722 14.0561L11.738 7.6702C11.8211 7.48333 12.009 7.24615 12.215 7.34678C12.3993 7.43662 12.2005 7.79598 12.1283 7.9577C10.5346 11.5226 10.0793 12.4462 9.30597 14.1028Z" fill="white"/>
<path d="M9.89855 13.7866C9.95999 13.8333 10.1081 13.6608 10.2238 13.4596L15.0408 5.47811C15.1276 5.33437 15.1745 5.10438 15.0011 5.01813C14.8674 4.94985 14.6325 5.08281 14.5241 5.27687L10.0467 13.3159C9.91301 13.5602 9.83712 13.7399 9.89855 13.7866Z" fill="white"/>
<path d="M10.0105 14.6491C9.94904 14.588 10.0538 14.3904 10.1839 14.1927L15.3298 6.76107C15.4671 6.55264 15.7743 6.31905 15.9622 6.42686C16.1321 6.52389 16.1357 6.73591 15.9911 6.93356L10.3755 14.3329C10.2345 14.5305 10.0755 14.7138 10.0105 14.6491Z" fill="white"/>
<path d="M11.5321 13.7866C11.5321 13.7866 11.1925 14.1388 11.1202 14.0597C11.0479 13.9843 11.1852 13.8333 11.337 13.6429L11.5068 13.4416L18.6981 5.23732C18.8137 5.09717 18.9727 5.08998 19.1245 5.20139L19.3413 5.46732C19.457 5.60747 19.4497 5.83746 19.3196 5.97043L11.5321 13.7866Z" fill="white"/>
<path d="M10.9502 15.1019C10.896 15.048 11.0189 14.8791 11.2465 14.6814L18.8823 7.70258C19.0196 7.56243 19.2111 7.56603 19.334 7.68462C19.493 7.83555 19.5472 7.9757 19.5761 8.11226C19.6195 8.33147 19.4966 8.4285 19.3376 8.56865L11.3839 14.8683C11.1887 15.0408 11.0116 15.163 10.9502 15.1019Z" fill="white"/>
<path d="M12.533 14.4766L21.4154 8.16614C21.5853 8.03317 21.7407 8.06192 21.784 8.23082L21.99 8.93877C22.037 9.11486 21.9141 9.34845 21.7298 9.47423L12.6848 14.685C12.4607 14.8252 12.2331 14.9509 12.1752 14.8719C12.103 14.7749 12.327 14.6419 12.533 14.4766Z" fill="white"/>
<path d="M11.5863 15.8026C11.5611 15.6984 11.7959 15.6014 12.0417 15.4756L19.9918 11.4903C20.2086 11.3717 20.3785 11.4328 20.3748 11.6161L20.411 12.4929C20.4074 12.6834 20.205 12.9205 19.9593 13.0176L12.1212 15.7344C11.8465 15.8422 11.608 15.9033 11.5863 15.8026Z" fill="white"/>
<path d="M20.9023 15.048L13.2232 16.1404C12.9232 16.1872 12.7028 16.2339 12.6775 16.1476C12.6522 16.0434 12.9088 15.9787 13.1907 15.8817L21.1552 13.4776C21.4118 13.3913 21.6142 13.4847 21.5889 13.6824L21.4768 14.588C21.4515 14.7964 21.195 15.0049 20.9023 15.048Z" fill="white"/>
<path d="M12.1681 16.8808C12.1464 16.7694 12.5295 16.7047 12.8258 16.6723L19.6159 15.8817C19.9195 15.8494 20.1688 16.0111 20.0676 16.2734L19.9303 16.6292C19.8508 16.8556 19.5979 17.0173 19.2835 16.9958L12.7752 16.9993C12.4897 17.0029 12.1898 16.9958 12.1681 16.8808Z" fill="white"/>
<path d="M11.2286 6.86885C11.2286 6.86885 9.26279 12.8774 9.14716 13.2009C9.0279 13.5458 8.90865 13.8549 8.80747 13.8297C8.74242 13.8118 8.79301 13.589 8.8689 13.323L10.73 6.80417C10.8203 6.54183 11.0949 6.31543 11.2033 6.337C11.3985 6.37293 11.2865 6.70355 11.2286 6.86885Z" fill="white"/>
</svg>
