<svg width="26" height="30" viewBox="0 0 26 30" fill="none" xmlns="http://www.w3.org/2000/svg">
<path d="M24.9903 12.9681L24.9851 13.0925L24.9837 13.105L24.9823 13.13C24.9389 13.9012 24.8164 14.6516 24.6224 15.3742L24.6166 15.3958L24.6117 15.4176C23.736 19.3793 21.3409 24.0652 14 28.3089V25V24H13C6.33525 24 1 18.8147 1 12.5C1 6.18533 6.33525 1 13 1C19.6647 1 25 6.18533 25 12.5C25 12.6568 24.9967 12.8129 24.9903 12.9681Z" stroke="white" stroke-width="2"/>
<path d="M10.1213 7H8C7.44772 7 6.99608 7.44947 7.03526 8.00036C7.46436 14.0331 11.7738 18.5299 17.9993 18.9654C18.5502 19.0039 19 18.5523 19 18V15.7143C19 15.162 18.5523 14.7143 18 14.7143H16.2925C16.0336 14.7143 15.7847 14.8147 15.5984 14.9944L14.5556 16C13.6667 16 10.1111 13 10.1111 11.7143L11.0822 10.7779C11.3101 10.5581 11.4204 10.2435 11.3797 9.9295L11.113 7.87145C11.0484 7.37303 10.6239 7 10.1213 7Z" fill="white"/>
</svg>
