<svg width="46" height="30" viewBox="0 0 46 30" fill="none" xmlns="http://www.w3.org/2000/svg">
<mask id="path-1-inside-1" fill="white">
<path fill-rule="evenodd" clip-rule="evenodd" d="M42 2H4C2.89543 2 2 2.89543 2 4V26C2 27.1046 2.89543 28 4 28H42C43.1046 28 44 27.1046 44 26V4C44 2.89543 43.1046 2 42 2ZM4 0C1.79086 0 0 1.79086 0 4V26C0 28.2091 1.79086 30 4 30H42C44.2091 30 46 28.2091 46 26V4C46 1.79086 44.2091 0 42 0H4Z"/>
</mask>
<path fill-rule="evenodd" clip-rule="evenodd" d="M42 2H4C2.89543 2 2 2.89543 2 4V26C2 27.1046 2.89543 28 4 28H42C43.1046 28 44 27.1046 44 26V4C44 2.89543 43.1046 2 42 2ZM4 0C1.79086 0 0 1.79086 0 4V26C0 28.2091 1.79086 30 4 30H42C44.2091 30 46 28.2091 46 26V4C46 1.79086 44.2091 0 42 0H4Z" fill="white"/>
<path d="M4 4H42V0H4V4ZM4 4V4V0C1.79086 0 0 1.79086 0 4H4ZM4 26V4H0V26H4ZM4 26H4H0C0 28.2091 1.79086 30 4 30V26ZM42 26H4V30H42V26ZM42 26V30C44.2091 30 46 28.2091 46 26H42ZM42 4V26H46V4H42ZM42 4H46C46 1.79086 44.2091 0 42 0V4ZM2 4C2 2.89543 2.89543 2 4 2V-2C0.686292 -2 -2 0.686291 -2 4H2ZM2 26V4H-2V26H2ZM4 28C2.89543 28 2 27.1046 2 26H-2C-2 29.3137 0.68629 32 4 32V28ZM42 28H4V32H42V28ZM44 26C44 27.1046 43.1046 28 42 28V32C45.3137 32 48 29.3137 48 26H44ZM44 4V26H48V4H44ZM42 2C43.1046 2 44 2.89543 44 4H48C48 0.686292 45.3137 -2 42 -2V2ZM4 2H42V-2H4V2Z" fill="white" mask="url(#path-1-inside-1)"/>
<rect x="2" y="20" width="42" height="4" fill="white"/>
<rect x="6" y="6" width="16" height="2" rx="1" fill="white"/>
<rect x="6" y="10" width="10" height="2" rx="1" fill="white"/>
</svg>
